<svg width="1440" height="275" viewBox="0 0 1440 275" fill="none" xmlns="http://www.w3.org/2000/svg">
<rect width="1440" height="275" fill="#191919"/>
<path d="M79.9375 43.7656C79.9375 41.5625 80.6172 39.7344 81.7422 38.1523H83.3945C82.5859 39.3242 81.7422 41.668 81.7422 43.7656C81.7422 45.875 82.5859 48.2188 83.3945 49.3906H81.7422C80.6172 47.8086 79.9375 45.9688 79.9375 43.7656ZM93.3587 43.2969V44.4922H89.2103V48.0781H87.7337V44.4922H83.6322V43.2969H93.3587ZM92.4916 37.9766V39.1484H89.3861C89.5326 40.1914 90.7103 41.2402 92.9017 41.5039L92.3627 42.6758C90.4877 42.4238 89.1459 41.6211 88.5072 40.5195C87.8509 41.6211 86.5209 42.4238 84.6634 42.6758L84.1127 41.5039C86.2689 41.2402 87.4584 40.1914 87.6283 39.1484H84.5111V37.9766H92.4916ZM97.0652 43.7656C97.0652 45.9688 96.3855 47.8086 95.2605 49.3906H93.6081C94.4167 48.2188 95.2605 45.875 95.2605 43.7656C95.2605 41.668 94.4167 39.3242 93.6081 38.1523H95.2605C96.3855 39.7344 97.0652 41.5625 97.0652 43.7656ZM107.686 42.2539V43.4609H103.561V44.2461C105.418 44.3867 106.514 45.0547 106.525 46.1562C106.514 47.3867 105.119 48.0781 102.811 48.0781C100.467 48.0781 99.0723 47.3867 99.0723 46.1562C99.0723 45.0488 100.18 44.3809 102.072 44.2461V43.4609H97.9591V42.2539H107.686ZM102.811 45.3477C101.334 45.3594 100.584 45.6172 100.596 46.1562C100.584 46.6719 101.334 46.9531 102.811 46.9531C104.252 46.9531 105.014 46.6719 105.025 46.1562C105.014 45.6172 104.252 45.3594 102.811 45.3477ZM106.807 37.8711V39.043H103.912C104.164 39.793 105.248 40.5137 107.275 40.6836L106.748 41.8555C104.738 41.6621 103.379 40.9004 102.811 39.8633C102.248 40.9004 100.912 41.6621 98.8848 41.8555L98.3927 40.6836C100.367 40.5137 101.457 39.7871 101.733 39.043H98.8497V37.8711H106.807ZM116.759 38.3398V39.3477C116.759 40.6836 116.759 42.1836 116.326 44.4453L114.826 44.293C115.23 42.2773 115.247 40.7773 115.259 39.5234H108.978V38.3398H116.759ZM117.697 45.5586V46.7773H107.97V45.5586H111.451V41.8906H112.939V45.5586H117.697ZM127.907 41.457V42.6758H126.395V48.0547H124.895V37.4141H126.395V41.457H127.907ZM119.809 38.4336V44.2109C121.175 44.1934 122.639 44.0645 124.18 43.7539L124.333 44.9961C122.552 45.3594 120.817 45.4531 119.247 45.4531H118.321V38.4336H119.809ZM136.406 37.4141V41.4453H137.977V42.6758H136.406V48.1016H134.93V37.4141H136.406ZM133.36 38.3047V42.4414H129.926V44.375C131.479 44.3691 132.762 44.2988 134.18 44.0586L134.309 45.2539C132.68 45.5469 131.215 45.6172 129.34 45.6172H128.438V41.2578H131.871V39.5117H128.426V38.3047H133.36ZM144.335 39.8281C144.323 41.7383 145.143 43.6719 146.854 44.4922L145.952 45.6875C144.809 45.125 144.042 44.0703 143.597 42.7812C143.134 44.1641 142.307 45.2949 141.1 45.8867L140.175 44.6797C141.979 43.8477 142.835 41.8086 142.835 39.8281V38.2344H144.335V39.8281ZM148.823 37.4141V41.5273H150.393V42.793H148.823V48.0781H147.323V37.4141H148.823ZM153.397 37.8711C154.762 37.8594 155.846 38.6387 156.139 39.7812H157.92V37.4141H159.408V43.1445H157.92V40.9766H156.151C155.869 42.1484 154.774 42.9453 153.397 42.9453C151.756 42.9453 150.549 41.8789 150.561 40.3906C150.549 38.9258 151.756 37.8594 153.397 37.8711ZM153.397 39.1133C152.565 39.1016 151.967 39.5938 151.979 40.3906C151.967 41.1875 152.565 41.6914 153.397 41.6914C154.205 41.6914 154.791 41.1875 154.791 40.3906C154.791 39.5938 154.205 39.1016 153.397 39.1133ZM153.772 43.6133V44.6445H157.92V43.6133H159.408V47.9609H152.295V43.6133H153.772ZM153.772 46.7539H157.92V45.793H153.772V46.7539ZM164.369 40.3203C164.357 41.9492 165.224 43.8242 166.982 44.6328L166.15 45.8047C164.961 45.2598 164.111 44.1699 163.642 42.8867C163.162 44.2988 162.289 45.4941 161.052 46.0742L160.185 44.8906C161.966 44.0586 162.857 42.0781 162.869 40.3203V39.6641H160.607V38.4453H166.513V39.6641H164.369V40.3203ZM168.845 37.4141V41.4805H170.416V42.7344H168.845V48.0781H167.345V37.4141H168.845ZM181.836 37.4141V43.7422H180.348V41.2227H178.684V40.0156H180.348V37.4141H181.836ZM178.192 43.9766C180.465 43.9883 181.86 44.7383 181.871 46.0391C181.86 47.3281 180.465 48.0898 178.192 48.0898C175.918 48.0898 174.524 47.3281 174.524 46.0391C174.524 44.7383 175.918 43.9883 178.192 43.9766ZM178.192 45.125C176.774 45.125 176.012 45.418 176.012 46.0391C176.012 46.6484 176.774 46.9531 178.192 46.9531C179.61 46.9531 180.383 46.6484 180.383 46.0391C180.383 45.418 179.61 45.125 178.192 45.125ZM179 38.0586V39.2539H176.879C176.914 40.4961 177.664 41.75 179.328 42.3008L178.59 43.4727C177.412 43.0918 176.604 42.3184 176.141 41.3516C175.666 42.4414 174.817 43.3203 173.551 43.7539L172.778 42.5703C174.53 41.9844 175.315 40.5898 175.356 39.2539H173.211V38.0586H179ZM192.621 45.6172V46.8359H182.859V45.6172H186.972V43.6484H183.89V38.0938H185.39V39.7461H190.043V38.0938H191.531V43.6484H188.461V45.6172H192.621ZM185.39 42.4531H190.043V40.9414H185.39V42.4531Z" fill="#F2F2F2"/>
<mask id="path-2-inside-1_116_629" fill="white">
<path d="M79 62H145V76H79V62Z"/>
</mask>
<path d="M144 62V76H146V62H144Z" fill="#666666" mask="url(#path-2-inside-1_116_629)"/>
<path d="M80.0664 69.7656C80.0781 67.5508 80.6758 65.7109 81.7539 64.1523H82.6445C81.8477 65.3125 81.1094 67.6797 81.1094 69.7656C81.1094 71.8516 81.8477 74.2305 82.6445 75.3906H81.7539C80.6758 73.8203 80.0781 71.9805 80.0664 69.7656ZM88.4134 65.0078C88.4017 66.4023 90.265 67.5859 92.0814 67.8555L91.7416 68.582C90.1127 68.3066 88.5306 67.4395 87.8978 66.1797C87.265 67.4395 85.6771 68.3066 84.0775 68.582L83.7142 67.8555C85.5189 67.5859 87.3822 66.4023 87.3822 65.0078V64.9375H84.0423V64.1875H91.7416V64.9375H88.4134V65.0078ZM92.6439 69.4727V70.2344H88.3314V73.9492H87.4291V70.2344H83.1517V69.4727H92.6439ZM95.7644 69.7656C95.7527 71.9805 95.155 73.8203 94.0769 75.3906H93.1862C93.9831 74.2305 94.7214 71.8516 94.7214 69.7656C94.7214 67.6797 93.9831 65.3125 93.1862 64.1523H94.0769C95.155 65.7109 95.7527 67.5508 95.7644 69.7656ZM106.385 68.4062V69.168H102.084V70.2812C104.053 70.3633 105.213 71.0078 105.225 72.1094C105.213 73.2695 103.877 73.9258 101.639 73.9258C99.377 73.9258 98.0411 73.2695 98.0411 72.1094C98.0411 71.0078 99.1954 70.3633 101.182 70.2812V69.168H96.8927V68.4062H106.385ZM101.639 70.9844C99.963 70.9961 98.9669 71.4062 98.9786 72.1094C98.9669 72.8008 99.963 73.2109 101.639 73.2109C103.291 73.2109 104.299 72.8008 104.299 72.1094C104.299 71.4062 103.291 70.9961 101.639 70.9844ZM105.541 64.0234V64.7734H102.236C102.295 65.9453 104.018 66.8535 105.858 67.0469L105.518 67.7734C103.813 67.5684 102.213 66.8066 101.639 65.6406C101.07 66.8066 99.4766 67.5684 97.7598 67.7734L97.4317 67.0469C99.2364 66.8535 100.971 65.9453 101.041 64.7734H97.7598V64.0234H105.541ZM115.259 64.5859V65.6289C115.247 66.9062 115.247 68.3359 114.872 70.4336L113.935 70.3281C114.333 68.3359 114.333 66.8711 114.333 65.6289V65.3477H107.912V64.5859H115.259ZM116.396 71.7109V72.4727H106.904V71.7109H110.63V67.9844H111.533V71.7109H116.396ZM126.665 67.6914V68.4648H124.977V73.9492H124.063V63.5312H124.977V67.6914H126.665ZM118.263 64.5625V70.5273C119.786 70.5215 121.339 70.4043 123.055 70.0469L123.173 70.832C121.38 71.1953 119.763 71.3008 118.18 71.3008H117.348V64.5625H118.263ZM134.988 63.5312V67.6797H136.735V68.4531H134.988V73.9727H134.074V63.5312H134.988ZM132.07 64.5039V68.2305H128.274V70.668C130.207 70.668 131.555 70.6035 133.137 70.3047L133.231 71.0664C131.59 71.3711 130.195 71.4414 128.192 71.4531H127.36V67.4688H131.156V65.2656H127.336V64.5039H132.07Z" fill="#666666"/>
<path d="M169.328 63.5312V73.9492H168.449V68.4883H166.914V73.4102H166.07V63.7656H166.914V67.7266H168.449V63.5312H169.328ZM164.711 64.8086V65.5703H161.723V70.5859C163.158 70.5801 164.154 70.5273 165.309 70.293L165.391 71.0664C164.137 71.3242 163.07 71.3711 161.477 71.3711H160.809V64.8086H164.711ZM179.972 71.9102V72.6719H170.433V71.9102H173.093V69.4258H171.3V68.6641H172.929V65.2656H171.277V64.5039H179.058V65.2656H177.406V68.6641H179.035V69.4258H177.242V71.9102H179.972ZM173.843 68.6641H176.503V65.2656H173.843V68.6641ZM174.019 71.9102H176.328V69.4258H174.019V71.9102ZM183.971 66.7305C183.96 68.4062 185.167 70.2461 186.678 70.9609L186.151 71.6875C184.979 71.1191 183.989 69.877 183.526 68.4648C183.046 70 181.997 71.3477 180.831 71.9453L180.268 71.2188C181.768 70.4922 183.057 68.5117 183.069 66.7305V65.3711H180.643V64.6094H186.315V65.3711H183.971V66.7305ZM188.507 63.5312V67.75H190.253V68.5352H188.507V73.9492H187.593V63.5312H188.507ZM194.208 71.875C193.798 71.875 193.447 71.5352 193.458 71.1133C193.447 70.7031 193.798 70.3633 194.208 70.3633C194.619 70.3633 194.958 70.7031 194.958 71.1133C194.958 71.5352 194.619 71.875 194.208 71.875ZM194.208 67.1641C193.798 67.1641 193.447 66.8242 193.458 66.4023C193.447 65.9922 193.798 65.6523 194.208 65.6523C194.619 65.6523 194.958 65.9922 194.958 66.4023C194.958 66.8242 194.619 67.1641 194.208 67.1641ZM202.395 69.0273V70.9375C203.397 70.8965 204.422 70.8086 205.383 70.668L205.453 71.3477C203.074 71.7812 200.508 71.793 198.633 71.793L198.504 71.0312C199.377 71.0254 200.408 71.0195 201.492 70.9844V69.0273H202.395ZM204.844 64.9023V65.6641H202.395C202.418 67.0117 203.537 68.1074 205.078 68.5469L204.645 69.2734C203.391 68.8984 202.412 68.0957 201.949 67.0352C201.492 68.1543 200.52 68.9863 199.266 69.3672L198.82 68.6641C200.361 68.2129 201.445 67.0703 201.469 65.6641H199.078V64.9023H201.492V63.6133H202.395V64.9023H204.844ZM206.988 63.5312V73.9727H206.074V63.5312H206.988ZM217.058 63.543V71.1602H216.144V63.543H217.058ZM217.386 72.9531V73.7266H210.332V70.3867H211.246V72.9531H217.386ZM211.433 64.2695C212.992 64.2695 214.164 65.3242 214.164 66.8242C214.164 68.3477 212.992 69.3906 211.433 69.3906C209.875 69.3906 208.703 68.3477 208.703 66.8242C208.703 65.3242 209.875 64.2695 211.433 64.2695ZM211.433 65.0781C210.378 65.0781 209.593 65.8047 209.605 66.8242C209.593 67.8672 210.378 68.582 211.433 68.582C212.464 68.582 213.261 67.8672 213.261 66.8242C213.261 65.8047 212.464 65.0781 211.433 65.0781ZM227.96 68.6055V69.3555H223.659V70.6094H226.788V73.9492H225.862V71.3477H219.522V70.6094H222.757V69.3555H218.468V68.6055H227.96ZM223.214 63.7891C225.475 63.7773 226.893 64.5273 226.893 65.793C226.893 67.0469 225.475 67.7969 223.214 67.7852C220.952 67.7969 219.522 67.0469 219.522 65.793C219.522 64.5273 220.952 63.7773 223.214 63.7891ZM223.214 64.5273C221.526 64.5156 220.46 65.0078 220.472 65.793C220.46 66.5898 221.526 67.0586 223.214 67.0586C224.878 67.0586 225.956 66.5898 225.956 65.793C225.956 65.0078 224.878 64.5156 223.214 64.5273Z" fill="#666666"/>
<path d="M259.914 222.406V223.168H255.613V224.281C257.582 224.363 258.742 225.008 258.754 226.109C258.742 227.27 257.406 227.926 255.168 227.926C252.906 227.926 251.57 227.27 251.57 226.109C251.57 225.008 252.725 224.363 254.711 224.281V223.168H250.422V222.406H259.914ZM255.168 224.984C253.492 224.996 252.496 225.406 252.508 226.109C252.496 226.801 253.492 227.211 255.168 227.211C256.82 227.211 257.828 226.801 257.828 226.109C257.828 225.406 256.82 224.996 255.168 224.984ZM259.07 218.023V218.773H255.766C255.824 219.945 257.547 220.854 259.387 221.047L259.047 221.773C257.342 221.568 255.742 220.807 255.168 219.641C254.6 220.807 253.006 221.568 251.289 221.773L250.961 221.047C252.766 220.854 254.5 219.945 254.57 218.773H251.289V218.023H259.07ZM268.788 218.586V219.629C268.777 220.906 268.777 222.336 268.402 224.434L267.464 224.328C267.863 222.336 267.863 220.871 267.863 219.629V219.348H261.441V218.586H268.788ZM269.925 225.711V226.473H260.433V225.711H264.16V221.984H265.062V225.711H269.925ZM280.194 221.691V222.465H278.507V227.949H277.593V217.531H278.507V221.691H280.194ZM271.792 218.562V224.527C273.315 224.521 274.868 224.404 276.585 224.047L276.702 224.832C274.909 225.195 273.292 225.301 271.71 225.301H270.878V218.562H271.792ZM288.518 217.531V221.68H290.264V222.453H288.518V227.973H287.604V217.531H288.518ZM285.6 218.504V222.23H281.803V224.668C283.736 224.668 285.084 224.604 286.666 224.305L286.76 225.066C285.119 225.371 283.725 225.441 281.721 225.453H280.889V221.469H284.686V219.266H280.865V218.504H285.6ZM298.895 218.188V218.75C298.884 219.406 298.884 220.344 298.614 221.574L297.7 221.492C297.94 220.391 297.97 219.588 297.97 218.961H293.704V218.188H298.895ZM296.212 220.449V222.488C297.372 222.453 298.561 222.371 299.645 222.23L299.704 222.91C297.524 223.262 295.028 223.32 293.153 223.32L293.059 222.547C293.739 222.547 294.501 222.541 295.298 222.523V220.449H296.212ZM301.286 217.531V220.391H302.809V221.164H301.286V224.047H300.348V217.531H301.286ZM297.899 224.176C300.055 224.176 301.368 224.867 301.368 226.027C301.368 227.234 300.055 227.914 297.899 227.914C295.743 227.914 294.43 227.234 294.43 226.027C294.43 224.867 295.743 224.176 297.899 224.176ZM297.899 224.891C296.329 224.891 295.345 225.324 295.356 226.027C295.345 226.766 296.329 227.188 297.899 227.188C299.47 227.188 300.442 226.766 300.442 226.027C300.442 225.324 299.47 224.891 297.899 224.891ZM311.485 218.586V219.629C311.473 220.906 311.473 222.336 311.098 224.434L310.16 224.328C310.559 222.336 310.559 220.871 310.559 219.629V219.348H304.137V218.586H311.485ZM312.621 225.711V226.473H303.129V225.711H306.856V221.984H307.758V225.711H312.621ZM325.319 222.863V223.625H321.077V225.758H320.163V223.625H315.78V222.863H325.319ZM324.077 218.047V221.668H317.022V218.047H324.077ZM317.925 218.773V220.93H323.163V218.773H317.925ZM324.253 226.953V227.727H316.999V224.727H317.925V226.953H324.253ZM329.213 218.293C330.854 218.293 332.014 219.289 332.014 220.742C332.014 222.195 330.854 223.191 329.213 223.191C327.573 223.191 326.389 222.195 326.401 220.742C326.389 219.289 327.573 218.293 329.213 218.293ZM329.213 219.102C328.1 219.102 327.291 219.77 327.303 220.742C327.291 221.715 328.1 222.383 329.213 222.383C330.315 222.383 331.112 221.715 331.112 220.742C331.112 219.77 330.315 219.102 329.213 219.102ZM334.346 217.531V227.973H333.432V217.531H334.346ZM325.862 224.891C327.783 224.891 330.432 224.879 332.74 224.539L332.811 225.219C330.432 225.664 327.865 225.676 325.99 225.676L325.862 224.891Z" fill="#666666"/>
<path d="M82.9141 88.332C82.9141 90.1719 84.1328 92.0586 85.6094 92.7852L85.0469 93.5234C83.8984 92.9199 82.9375 91.6895 82.4805 90.2422C82.0117 91.7832 81.0273 93.0957 79.8555 93.7227L79.2695 92.9844C80.793 92.2344 82 90.2305 82.0117 88.332V86.4336H82.9141V88.332ZM87.4844 85.5312V89.7617H89.2305V90.5586H87.4844V95.9492H86.5703V85.5312H87.4844ZM92.3041 86.0234C93.7045 86.0117 94.765 86.8262 94.9642 88.0273H97.1439V85.5312H98.0697V91.1211H97.1439V88.7891H94.9759C94.7884 90.0195 93.7162 90.8398 92.3041 90.8398C90.722 90.8398 89.597 89.8555 89.597 88.4258C89.597 87.0078 90.722 86.0117 92.3041 86.0234ZM92.3041 86.8086C91.2377 86.7969 90.4759 87.4648 90.4759 88.4258C90.4759 89.375 91.2377 90.0664 92.3041 90.0664C93.3588 90.0664 94.1088 89.375 94.1088 88.4258C94.1088 87.4648 93.3588 86.7969 92.3041 86.8086ZM92.2806 91.6484V92.9727H97.1439V91.6484H98.0697V95.8086H91.3548V91.6484H92.2806ZM92.2806 95.0586H97.1439V93.7109H92.2806V95.0586ZM102.971 88.7305C102.96 90.4062 104.167 92.2461 105.678 92.9609L105.151 93.6875C103.979 93.1191 102.989 91.877 102.526 90.4648C102.046 92 100.997 93.3477 99.8308 93.9453L99.2683 93.2188C100.768 92.4922 102.057 90.5117 102.069 88.7305V87.3711H99.6433V86.6094H105.315V87.3711H102.971V88.7305ZM107.507 85.5312V89.75H109.253V90.5352H107.507V95.9492H106.593V85.5312H107.507ZM121.611 90.4883V91.2617H112.107V90.4883H121.611ZM120.498 88.7422V89.4922H113.314V85.9531H120.427V86.7266H114.216V88.7422H120.498ZM116.853 92.1758C119.091 92.1758 120.427 92.8555 120.439 94.0508C120.427 95.2578 119.091 95.9258 116.853 95.9258C114.603 95.9258 113.255 95.2578 113.255 94.0508C113.255 92.8555 114.603 92.1758 116.853 92.1758ZM116.853 92.8906C115.177 92.9023 114.181 93.3242 114.193 94.0508C114.181 94.7891 115.177 95.1992 116.853 95.1992C118.505 95.1992 119.513 94.7891 119.513 94.0508C119.513 93.3242 118.505 92.9023 116.853 92.8906ZM131.645 91.2734V92.0352H122.106V91.2734H126.419V90.1719H123.348V87.6289H129.489V86.5508H123.313V85.8008H130.415V88.3203H124.263V89.4336H130.638V90.1719H127.321V91.2734H131.645ZM130.473 92.832V95.8555H129.548V93.582H123.173V92.832H130.473ZM140.766 85.543V93.2539H139.84V89.2461H137.379V91.4727H132.656V86.2344H133.57V88.0859H136.477V86.2344H137.379V88.4727H139.84V85.543H140.766ZM141 94.9531V95.7266H134.028V92.4922H134.953V94.9531H141ZM133.57 90.7109H136.477V88.8125H133.57V90.7109ZM151.14 87.0781V87.8398H142.609V87.0781H146.429V85.707H147.332V87.0781H151.14ZM151.679 93.9688V94.7305H142.14V93.9688H146.429V92.5039C144.578 92.4043 143.453 91.6836 143.464 90.5117C143.453 89.2695 144.765 88.543 146.886 88.5547C148.984 88.543 150.308 89.2695 150.308 90.5117C150.308 91.6836 149.171 92.4043 147.332 92.5039V93.9688H151.679ZM146.886 89.2812C145.328 89.2812 144.378 89.7383 144.39 90.5117C144.378 91.3086 145.328 91.7539 146.886 91.7656C148.421 91.7539 149.371 91.3086 149.371 90.5117C149.371 89.7383 148.421 89.2812 146.886 89.2812ZM155.905 93.875C155.494 93.875 155.143 93.5352 155.155 93.1133C155.143 92.7031 155.494 92.3633 155.905 92.3633C156.315 92.3633 156.655 92.7031 156.655 93.1133C156.655 93.5352 156.315 93.875 155.905 93.875ZM155.905 89.1641C155.494 89.1641 155.143 88.8242 155.155 88.4023C155.143 87.9922 155.494 87.6523 155.905 87.6523C156.315 87.6523 156.655 87.9922 156.655 88.4023C156.655 88.8242 156.315 89.1641 155.905 89.1641ZM160.517 95L160.505 94.2266L163.399 91.1797C164.407 90.1133 164.888 89.5391 164.888 88.7539C164.888 87.8867 164.149 87.3125 163.2 87.3125C162.192 87.3125 161.548 87.957 161.548 88.9062H160.552C160.54 87.4062 161.7 86.3984 163.235 86.3984C164.77 86.3984 165.872 87.4297 165.872 88.7539C165.872 89.7031 165.427 90.4414 163.927 91.9883L161.981 93.9922V94.0625H166.024V95H160.517ZM170.2 86.5156V95H169.133V87.6172H169.086L167.024 88.9883V87.9219L169.133 86.5156H170.2ZM174.867 95.1172C173.332 95.1172 172.172 94.168 172.113 92.8672H173.132C173.215 93.6289 173.953 94.1914 174.867 94.1914C175.968 94.1914 176.765 93.3828 176.765 92.3164C176.765 91.2148 175.933 90.4062 174.797 90.3945C174.082 90.3828 173.531 90.6055 173.215 91.1562H172.195L172.793 86.5156H177.386V87.4531H173.672L173.355 89.9375H173.437C173.812 89.6445 174.386 89.4453 174.984 89.4453C176.601 89.4453 177.797 90.6406 177.797 92.293C177.797 93.9336 176.554 95.1172 174.867 95.1172ZM182.558 90.3008V91.2266H178.843V90.3008H182.558ZM186.569 95.1172C184.787 95.1172 183.545 94.1328 183.557 92.75C183.545 91.6484 184.307 90.7461 185.28 90.5938V90.5469C184.436 90.3477 183.885 89.5742 183.885 88.6484C183.885 87.3477 185.022 86.3984 186.569 86.3984C188.116 86.3984 189.252 87.3477 189.264 88.6484C189.252 89.5742 188.69 90.3477 187.858 90.5469V90.5938C188.819 90.7461 189.58 91.6484 189.592 92.75C189.58 94.1328 188.338 95.1172 186.569 95.1172ZM186.569 94.1914C187.787 94.1914 188.537 93.582 188.537 92.6914C188.537 91.7539 187.705 91.0625 186.569 91.0625C185.432 91.0625 184.588 91.7539 184.612 92.6914C184.588 93.582 185.35 94.1914 186.569 94.1914ZM186.569 90.1719C187.53 90.1719 188.233 89.5859 188.233 88.7305C188.233 87.8867 187.565 87.3125 186.569 87.3125C185.561 87.3125 184.905 87.8867 184.905 88.7305C184.905 89.5859 185.596 90.1719 186.569 90.1719ZM190.92 95L194.81 87.5117V87.4531H190.322V86.5156H195.9V87.5L192.021 95H190.92ZM200.567 90.3008V91.2266H196.853V90.3008H200.567ZM204.579 95.1172C202.797 95.1172 201.555 94.1328 201.567 92.75C201.555 91.6484 202.317 90.7461 203.29 90.5938V90.5469C202.446 90.3477 201.895 89.5742 201.895 88.6484C201.895 87.3477 203.032 86.3984 204.579 86.3984C206.125 86.3984 207.262 87.3477 207.274 88.6484C207.262 89.5742 206.7 90.3477 205.868 90.5469V90.5938C206.829 90.7461 207.59 91.6484 207.602 92.75C207.59 94.1328 206.348 95.1172 204.579 95.1172ZM204.579 94.1914C205.797 94.1914 206.547 93.582 206.547 92.6914C206.547 91.7539 205.715 91.0625 204.579 91.0625C203.442 91.0625 202.598 91.7539 202.622 92.6914C202.598 93.582 203.36 94.1914 204.579 94.1914ZM204.579 90.1719C205.54 90.1719 206.243 89.5859 206.243 88.7305C206.243 87.8867 205.575 87.3125 204.579 87.3125C203.571 87.3125 202.915 87.8867 202.915 88.7305C202.915 89.5859 203.606 90.1719 204.579 90.1719ZM208.93 95L212.82 87.5117V87.4531H208.332V86.5156H213.91V87.5L210.031 95H208.93ZM214.03 93.2656V92.3984L217.851 86.5156H219.152V92.3398H220.335V93.2656H219.152V95H218.144V93.2656H214.03ZM215.167 92.3398H218.144V87.8516H218.038L215.167 92.2695V92.3398ZM224.206 95.1172C222.424 95.1172 221.182 94.1328 221.194 92.75C221.182 91.6484 221.944 90.7461 222.917 90.5938V90.5469C222.073 90.3477 221.522 89.5742 221.522 88.6484C221.522 87.3477 222.659 86.3984 224.206 86.3984C225.753 86.3984 226.889 87.3477 226.901 88.6484C226.889 89.5742 226.327 90.3477 225.495 90.5469V90.5938C226.456 90.7461 227.217 91.6484 227.229 92.75C227.217 94.1328 225.975 95.1172 224.206 95.1172ZM224.206 94.1914C225.424 94.1914 226.174 93.582 226.174 92.6914C226.174 91.7539 225.342 91.0625 224.206 91.0625C223.069 91.0625 222.225 91.7539 222.249 92.6914C222.225 93.582 222.987 94.1914 224.206 94.1914ZM224.206 90.1719C225.167 90.1719 225.87 89.5859 225.87 88.7305C225.87 87.8867 225.202 87.3125 224.206 87.3125C223.198 87.3125 222.542 87.8867 222.542 88.7305C222.542 89.5859 223.233 90.1719 224.206 90.1719ZM228.287 95L228.275 94.2266L231.17 91.1797C232.178 90.1133 232.658 89.5391 232.658 88.7539C232.658 87.8867 231.92 87.3125 230.971 87.3125C229.963 87.3125 229.318 87.957 229.318 88.9062H228.322C228.31 87.4062 229.471 86.3984 231.006 86.3984C232.541 86.3984 233.643 87.4297 233.643 88.7539C233.643 89.7031 233.197 90.4414 231.697 91.9883L229.752 93.9922V94.0625H233.795V95H228.287Z" fill="#666666"/>
<path d="M88.9141 113.062V113.812H79.4102V113.062H83.6992V112.031H80.6758V107.836H87.7305V108.586H81.6016V109.559H87.4492V110.262H81.6016V111.293H87.7891V112.031H84.6133V113.062H88.9141ZM84.168 114.598C86.4531 114.586 87.7422 115.172 87.7539 116.262C87.7422 117.352 86.4531 117.926 84.168 117.926C81.8594 117.926 80.5703 117.352 80.5703 116.262C80.5703 115.172 81.8594 114.586 84.168 114.598ZM84.168 115.289C82.4453 115.289 81.4844 115.641 81.4961 116.262C81.4844 116.895 82.4453 117.223 84.168 117.211C85.8672 117.223 86.8281 116.895 86.8281 116.262C86.8281 115.641 85.8672 115.289 84.168 115.289ZM98.0345 107.543V115.184H97.1205V107.543H98.0345ZM98.3627 116.953V117.727H91.308V114.48H92.222V116.953H98.3627ZM93.1244 109.172C93.1127 110.754 94.2025 112.184 95.7494 112.746L95.2689 113.484C94.0619 113.021 93.1244 112.084 92.6673 110.883C92.2045 112.16 91.2552 113.186 90.0423 113.672L89.5384 112.957C91.1205 112.348 92.1869 110.812 92.1869 109.172V108.129H93.1244V109.172ZM105.397 108.527V109.277H104.331V112.723C104.864 112.688 105.391 112.641 105.889 112.582L105.96 113.273C103.85 113.602 101.389 113.648 99.5847 113.648L99.4792 112.887L100.827 112.863V109.277H99.7722V108.527H105.397ZM107.589 107.543V110.707H109.159V111.492H107.589V115.207H106.675V107.543H107.589ZM108.069 116.953V117.727H101.073V114.48H101.975V116.953H108.069ZM101.729 112.852C102.286 112.834 102.86 112.816 103.428 112.781V109.277H101.729V112.852ZM118.385 107.531V117.949H117.494V112.43H116.041V117.422H115.162V107.754H116.041V111.668H117.494V107.531H118.385ZM113.826 108.75V115.148H109.842V108.75H113.826ZM110.709 109.488V114.41H112.959V109.488H110.709ZM128.068 107.543V115.184H127.154V107.543H128.068ZM128.396 116.953V117.727H121.341V114.48H122.255V116.953H128.396ZM123.158 109.172C123.146 110.754 124.236 112.184 125.783 112.746L125.302 113.484C124.095 113.021 123.158 112.084 122.701 110.883C122.238 112.16 121.289 113.186 120.076 113.672L119.572 112.957C121.154 112.348 122.22 110.812 122.22 109.172V108.129H123.158V109.172ZM137.833 108.586V109.629C137.821 110.906 137.821 112.336 137.446 114.434L136.509 114.328C136.907 112.336 136.907 110.871 136.907 109.629V109.348H130.485V108.586H137.833ZM138.97 115.711V116.473H129.477V115.711H133.204V111.984H134.106V115.711H138.97ZM148.125 107.543V115.254H147.199V111.246H144.738V113.473H140.016V108.234H140.93V110.086H143.836V108.234H144.738V110.473H147.199V107.543H148.125ZM148.36 116.953V117.727H141.387V114.492H142.313V116.953H148.36ZM140.93 112.711H143.836V110.812H140.93V112.711ZM158.5 109.078V109.84H149.968V109.078H153.789V107.707H154.691V109.078H158.5ZM159.039 115.969V116.73H149.5V115.969H153.789V114.504C151.937 114.404 150.812 113.684 150.824 112.512C150.812 111.27 152.125 110.543 154.246 110.555C156.343 110.543 157.668 111.27 157.668 112.512C157.668 113.684 156.531 114.404 154.691 114.504V115.969H159.039ZM154.246 111.281C152.687 111.281 151.738 111.738 151.75 112.512C151.738 113.309 152.687 113.754 154.246 113.766C155.781 113.754 156.73 113.309 156.73 112.512C156.73 111.738 155.781 111.281 154.246 111.281ZM163.264 115.875C162.854 115.875 162.502 115.535 162.514 115.113C162.502 114.703 162.854 114.363 163.264 114.363C163.674 114.363 164.014 114.703 164.014 115.113C164.014 115.535 163.674 115.875 163.264 115.875ZM163.264 111.164C162.854 111.164 162.502 110.824 162.514 110.402C162.502 109.992 162.854 109.652 163.264 109.652C163.674 109.652 164.014 109.992 164.014 110.402C164.014 110.824 163.674 111.164 163.264 111.164ZM176.407 107.531V117.949H175.528V107.531H176.407ZM174.298 107.789V117.41H173.431V112.043H171.673V111.293H173.431V107.789H174.298ZM170.56 110.508C170.56 112.312 171.368 114.105 172.81 114.938L172.247 115.617C171.222 115.002 170.495 113.877 170.138 112.547C169.757 113.982 169.001 115.207 167.958 115.863L167.372 115.172C168.825 114.305 169.669 112.406 169.669 110.508V109.523H167.665V108.762H172.47V109.523H170.56V110.508ZM177.887 117L177.875 116.227L180.77 113.18C181.778 112.113 182.258 111.539 182.258 110.754C182.258 109.887 181.52 109.312 180.571 109.312C179.563 109.312 178.918 109.957 178.918 110.906H177.922C177.91 109.406 179.071 108.398 180.606 108.398C182.141 108.398 183.243 109.43 183.243 110.754C183.243 111.703 182.797 112.441 181.297 113.988L179.352 115.992V116.062H183.395V117H177.887ZM187.347 117.117C185.461 117.117 184.382 115.535 184.382 112.758C184.382 110.004 185.484 108.398 187.347 108.398C189.211 108.398 190.312 110.004 190.312 112.758C190.312 115.535 189.222 117.117 187.347 117.117ZM187.347 116.18C188.566 116.18 189.281 114.949 189.281 112.758C189.281 110.566 188.566 109.312 187.347 109.312C186.129 109.312 185.402 110.566 185.402 112.758C185.402 114.949 186.117 116.18 187.347 116.18ZM194.358 108.516V117H193.292V109.617H193.245L191.183 110.988V109.922L193.292 108.516H194.358ZM199.084 108.398C200.549 108.41 202.166 109.289 202.166 112.418C202.166 115.43 200.936 117.117 198.944 117.117C197.455 117.117 196.401 116.203 196.19 114.855H197.233C197.42 115.617 197.995 116.18 198.944 116.18C200.327 116.18 201.17 114.984 201.182 112.922H201.065C200.573 113.625 199.799 114.047 198.897 114.047C197.373 114.047 196.12 112.887 196.12 111.246C196.12 109.664 197.28 108.387 199.084 108.398ZM199.084 109.324C197.971 109.324 197.139 110.191 197.151 111.234C197.151 112.289 197.936 113.121 199.049 113.121C200.151 113.121 201.018 112.207 201.018 111.211C201.018 110.238 200.209 109.324 199.084 109.324ZM206.916 112.301V113.227H203.201V112.301H206.916ZM211.384 110.332C211.384 112.219 212.591 114.117 214.103 114.809L213.552 115.559C212.368 114.949 211.39 113.701 210.927 112.219C210.464 113.777 209.485 115.113 208.302 115.746L207.704 115.008C209.228 114.258 210.446 112.254 210.446 110.332V108.434H211.384V110.332ZM216.353 107.531V117.973H215.439V111.844H212.966V111.094H215.439V107.531H216.353ZM222.473 107.66C224.793 107.66 226.153 108.305 226.153 109.465C226.153 110.637 224.793 111.27 222.473 111.281C220.153 111.27 218.782 110.637 218.782 109.465C218.782 108.305 220.153 107.66 222.473 107.66ZM222.473 108.363C220.739 108.375 219.731 108.773 219.743 109.465C219.731 110.18 220.739 110.566 222.473 110.578C224.196 110.566 225.215 110.18 225.215 109.465C225.215 108.773 224.196 108.375 222.473 108.363ZM227.219 111.973V112.711H222.918V113.695H226V116.027H219.813V117.105H226.317V117.832H218.899V115.348H225.098V114.398H218.875V113.695H222.004V112.711H217.727V111.973H227.219ZM231.406 110.332C231.406 112.219 232.613 114.117 234.125 114.809L233.574 115.559C232.39 114.949 231.412 113.701 230.949 112.219C230.486 113.777 229.508 115.113 228.324 115.746L227.726 115.008C229.25 114.258 230.469 112.254 230.469 110.332V108.434H231.406V110.332ZM236.375 107.531V117.973H235.461V111.844H232.988V111.094H235.461V107.531H236.375ZM247.288 115.863V116.637H237.749V115.863H242.05V113.473H242.952V115.863H247.288ZM246.374 109.195V109.957H242.976C242.982 111.592 244.716 112.793 246.714 113.121L246.363 113.848C244.693 113.549 243.163 112.711 242.507 111.41C241.845 112.711 240.316 113.549 238.64 113.848L238.277 113.121C240.286 112.793 242.032 111.592 242.038 109.957H238.64V109.195H242.05V107.754H242.952V109.195H246.374ZM251.792 112.301V113.227H248.077V112.301H251.792ZM255.744 117.117C253.857 117.117 252.779 115.535 252.779 112.758C252.779 110.004 253.881 108.398 255.744 108.398C257.607 108.398 258.709 110.004 258.709 112.758C258.709 115.535 257.619 117.117 255.744 117.117ZM255.744 116.18C256.963 116.18 257.678 114.949 257.678 112.758C257.678 110.566 256.963 109.312 255.744 109.312C254.525 109.312 253.799 110.566 253.799 112.758C253.799 114.949 254.514 116.18 255.744 116.18ZM262.533 117.117C260.646 117.117 259.568 115.535 259.568 112.758C259.568 110.004 260.669 108.398 262.533 108.398C264.396 108.398 265.497 110.004 265.497 112.758C265.497 115.535 264.408 117.117 262.533 117.117ZM262.533 116.18C263.751 116.18 264.466 114.949 264.466 112.758C264.466 110.566 263.751 109.312 262.533 109.312C261.314 109.312 260.587 110.566 260.587 112.758C260.587 114.949 261.302 116.18 262.533 116.18ZM269.368 108.398C270.833 108.41 272.45 109.289 272.45 112.418C272.45 115.43 271.219 117.117 269.227 117.117C267.739 117.117 266.684 116.203 266.473 114.855H267.516C267.704 115.617 268.278 116.18 269.227 116.18C270.61 116.18 271.454 114.984 271.465 112.922H271.348C270.856 113.625 270.083 114.047 269.18 114.047C267.657 114.047 266.403 112.887 266.403 111.246C266.403 109.664 267.563 108.387 269.368 108.398ZM269.368 109.324C268.255 109.324 267.423 110.191 267.434 111.234C267.434 112.289 268.219 113.121 269.333 113.121C270.434 113.121 271.301 112.207 271.301 111.211C271.301 110.238 270.493 109.324 269.368 109.324ZM273.578 117L277.469 109.512V109.453H272.98V108.516H278.559V109.5L274.68 117H273.578ZM288.195 109.078V109.84H279.663V109.078H283.484V107.707H284.386V109.078H288.195ZM288.734 115.969V116.73H279.195V115.969H283.484V114.504C281.632 114.404 280.507 113.684 280.519 112.512C280.507 111.27 281.82 110.543 283.941 110.555C286.038 110.543 287.363 111.27 287.363 112.512C287.363 113.684 286.226 114.404 284.386 114.504V115.969H288.734ZM283.941 111.281C282.382 111.281 281.433 111.738 281.445 112.512C281.433 113.309 282.382 113.754 283.941 113.766C285.476 113.754 286.425 113.309 286.425 112.512C286.425 111.738 285.476 111.281 283.941 111.281Z" fill="#666666"/>
<path d="M84.6836 131.008C84.6719 132.402 86.5352 133.586 88.3516 133.855L88.0117 134.582C86.3828 134.307 84.8008 133.439 84.168 132.18C83.5352 133.439 81.9473 134.307 80.3477 134.582L79.9844 133.855C81.7891 133.586 83.6523 132.402 83.6523 131.008V130.938H80.3125V130.188H88.0117V130.938H84.6836V131.008ZM88.9141 135.473V136.234H84.6016V139.949H83.6992V136.234H79.4219V135.473H88.9141ZM98.972 137.828V138.59H89.433V137.828H93.6986V135.273H94.6009V137.828H98.972ZM94.6244 131.043C94.6244 132.789 96.6869 134.312 98.5033 134.629L98.0931 135.391C96.5052 135.068 94.8295 133.99 94.1556 132.484C93.4701 133.984 91.806 135.068 90.2181 135.391L89.808 134.629C91.6244 134.312 93.6634 132.789 93.6634 131.043V130.246H94.6244V131.043ZM103.197 137.875C102.787 137.875 102.436 137.535 102.447 137.113C102.436 136.703 102.787 136.363 103.197 136.363C103.608 136.363 103.947 136.703 103.947 137.113C103.947 137.535 103.608 137.875 103.197 137.875ZM103.197 133.164C102.787 133.164 102.436 132.824 102.447 132.402C102.436 131.992 102.787 131.652 103.197 131.652C103.608 131.652 103.947 131.992 103.947 132.402C103.947 132.824 103.608 133.164 103.197 133.164ZM111.102 132.332C111.102 134.219 112.309 136.117 113.821 136.809L113.27 137.559C112.087 136.949 111.108 135.701 110.645 134.219C110.182 135.777 109.204 137.113 108.02 137.746L107.423 137.008C108.946 136.258 110.165 134.254 110.165 132.332V130.434H111.102V132.332ZM116.071 129.531V139.973H115.157V133.844H112.684V133.094H115.157V129.531H116.071ZM122.192 129.66C124.512 129.66 125.871 130.305 125.871 131.465C125.871 132.637 124.512 133.27 122.192 133.281C119.871 133.27 118.5 132.637 118.5 131.465C118.5 130.305 119.871 129.66 122.192 129.66ZM122.192 130.363C120.457 130.375 119.449 130.773 119.461 131.465C119.449 132.18 120.457 132.566 122.192 132.578C123.914 132.566 124.934 132.18 124.934 131.465C124.934 130.773 123.914 130.375 122.192 130.363ZM126.938 133.973V134.711H122.637V135.695H125.719V138.027H119.531V139.105H126.035V139.832H118.617V137.348H124.817V136.398H118.594V135.695H121.723V134.711H117.445V133.973H126.938ZM136.949 135.051V135.789H127.445V135.051H136.949ZM135.718 136.809V139.949H134.781V137.547H128.511V136.809H135.718ZM135.824 133.328V134.043H128.71V129.812H135.765V130.551H129.636V131.547H135.484V132.262H129.636V133.328H135.824ZM146.093 129.531V134.98H145.179V133.645H142.718V134.559H137.995V130.023H138.909V131.523H141.815V130.023H142.718V131.031H145.179V129.531H146.093ZM146.093 135.484V137.934H140.28V139.07H146.491V139.809H139.366V137.23H145.179V136.223H139.343V135.484H146.093ZM138.909 133.809H141.815V132.25H138.909V133.809ZM142.718 132.918H145.179V131.746H142.718V132.918ZM151.182 132.332C151.17 134.23 152.471 136.152 154.006 136.844L153.444 137.57C152.26 136.99 151.235 135.766 150.737 134.277C150.25 135.854 149.225 137.166 148.006 137.781L147.42 137.008C148.967 136.293 150.256 134.312 150.268 132.332V130.434H151.182V132.332ZM156.069 129.531V139.973H155.143V129.531H156.069ZM163.81 132.332C163.81 134.219 165.017 136.117 166.528 136.809L165.978 137.559C164.794 136.949 163.815 135.701 163.353 134.219C162.89 135.777 161.911 137.113 160.728 137.746L160.13 137.008C161.653 136.258 162.872 134.254 162.872 132.332V130.434H163.81V132.332ZM168.778 129.531V139.973H167.864V133.844H165.392V133.094H167.864V129.531H168.778ZM179.692 137.863V138.637H170.153V137.863H174.453V135.473H175.356V137.863H179.692ZM178.778 131.195V131.957H175.379C175.385 133.592 177.119 134.793 179.118 135.121L178.766 135.848C177.096 135.549 175.567 134.711 174.91 133.41C174.248 134.711 172.719 135.549 171.043 135.848L170.68 135.121C172.69 134.793 174.436 133.592 174.442 131.957H171.043V131.195H174.453V129.754H175.356V131.195H178.778ZM188.402 130.211V131.125C188.402 132.115 188.402 133.188 188.109 134.688H189.656V135.449H185.355V139.973H184.429V135.449H180.164V134.688H187.172C187.488 133.188 187.488 132.092 187.488 131.125V130.973H181.359V130.211H188.402ZM196.495 132.332C196.495 134.219 197.702 136.117 199.213 136.809L198.662 137.559C197.479 136.949 196.5 135.701 196.037 134.219C195.575 135.777 194.596 137.113 193.412 137.746L192.815 137.008C194.338 136.258 195.557 134.254 195.557 132.332V130.434H196.495V132.332ZM201.463 129.531V139.973H200.549V133.844H198.077V133.094H200.549V129.531H201.463ZM212.377 137.863V138.637H202.838V137.863H207.138V135.473H208.041V137.863H212.377ZM211.463 131.195V131.957H208.064C208.07 133.592 209.804 134.793 211.802 135.121L211.451 135.848C209.781 135.549 208.252 134.711 207.595 133.41C206.933 134.711 205.404 135.549 203.728 135.848L203.365 135.121C205.375 134.793 207.121 133.592 207.127 131.957H203.728V131.195H207.138V129.754H208.041V131.195H211.463ZM221.755 129.531V139.949H220.876V134.488H219.341V139.41H218.497V129.766H219.341V133.727H220.876V129.531H221.755ZM217.138 130.809V131.57H214.15V136.586C215.585 136.58 216.581 136.527 217.735 136.293L217.818 137.066C216.564 137.324 215.497 137.371 213.903 137.371H213.235V130.809H217.138ZM232.399 137.887V138.66H222.86V137.887H227.149V135.918H224.055V132.707H230.29V131.066H224.032V130.305H231.192V133.457H224.969V135.156H231.438V135.918H228.051V137.887H232.399ZM238.827 139.117C237.14 139.117 235.933 138.215 235.874 136.867H236.941C236.999 137.676 237.808 138.18 238.816 138.18C239.929 138.18 240.749 137.57 240.749 136.691C240.749 135.766 240.011 135.109 238.687 135.109H237.995V134.184H238.687C239.718 134.184 240.433 133.609 240.433 132.73C240.433 131.887 239.812 131.312 238.851 131.312C237.948 131.312 237.116 131.816 237.07 132.648H236.05C236.109 131.301 237.351 130.398 238.863 130.398C240.48 130.398 241.464 131.453 241.452 132.672C241.464 133.633 240.902 134.348 240.011 134.594V134.652C241.113 134.828 241.792 135.613 241.78 136.691C241.792 138.086 240.515 139.117 238.827 139.117ZM245.721 139.117C243.835 139.117 242.756 137.535 242.756 134.758C242.756 132.004 243.858 130.398 245.721 130.398C247.585 130.398 248.686 132.004 248.686 134.758C248.686 137.535 247.596 139.117 245.721 139.117ZM245.721 138.18C246.94 138.18 247.655 136.949 247.655 134.758C247.655 132.566 246.94 131.312 245.721 131.312C244.503 131.312 243.776 132.566 243.776 134.758C243.776 136.949 244.491 138.18 245.721 138.18ZM252.732 130.516V139H251.666V131.617H251.619L249.557 132.988V131.922L251.666 130.516H252.732ZM266.415 134.688V135.426H256.911V134.688H261.212V133.469H258.118V130.023H265.231V130.762H259.02V132.719H265.301V133.469H262.102V134.688H266.415ZM261.657 136.188C263.895 136.188 265.231 136.867 265.243 138.062C265.231 139.27 263.895 139.938 261.657 139.949C259.407 139.938 258.059 139.27 258.059 138.062C258.059 136.867 259.407 136.188 261.657 136.188ZM261.657 136.914C259.981 136.914 258.985 137.348 258.997 138.062C258.985 138.789 259.981 139.211 261.657 139.211C263.309 139.211 264.317 138.789 264.317 138.062C264.317 137.348 263.309 136.914 261.657 136.914ZM275.523 136.293V139.949H274.609V137.066H268.516V136.293H275.523ZM275.523 129.531V135.73H274.609V129.531H275.523ZM269.898 130.164C271.48 130.152 272.629 131.172 272.629 132.613C272.629 134.078 271.48 135.086 269.898 135.086C268.316 135.086 267.168 134.078 267.168 132.613C267.168 131.172 268.316 130.152 269.898 130.164ZM269.898 130.949C268.832 130.949 268.059 131.629 268.07 132.613C268.059 133.609 268.832 134.301 269.898 134.289C270.953 134.301 271.727 133.609 271.727 132.613C271.727 131.629 270.953 130.949 269.898 130.949ZM280.519 131.172C280.507 132.66 281.562 133.973 283.097 134.488L282.581 135.203C281.433 134.77 280.531 133.926 280.085 132.824C279.634 134.072 278.679 135.045 277.425 135.52L276.921 134.77C278.527 134.207 279.593 132.824 279.605 131.207V130.129H280.519V131.172ZM285.57 129.531V135.707H284.644V132.531H282.324V131.77H284.644V129.531H285.57ZM282.113 136.012C284.281 136.012 285.605 136.727 285.605 137.98C285.605 139.223 284.281 139.926 282.113 139.926C279.945 139.926 278.62 139.223 278.62 137.98C278.62 136.727 279.945 136.012 282.113 136.012ZM282.113 136.738C280.519 136.738 279.523 137.207 279.535 137.98C279.523 138.73 280.519 139.188 282.113 139.188C283.706 139.188 284.691 138.73 284.691 137.98C284.691 137.207 283.706 136.738 282.113 136.738ZM296.436 134.758V135.52H286.944V134.758H291.233V133.633H288.21V129.812H289.124V130.984H294.28V129.812H295.194V133.633H292.147V134.758H296.436ZM291.69 136.293C293.928 136.293 295.264 136.949 295.276 138.109C295.264 139.281 293.928 139.926 291.69 139.926C289.428 139.926 288.092 139.281 288.092 138.109C288.092 136.949 289.428 136.293 291.69 136.293ZM291.69 137.008C290.014 137.008 289.03 137.406 289.03 138.109C289.03 138.812 290.014 139.211 291.69 139.211C293.342 139.211 294.339 138.812 294.339 138.109C294.339 137.406 293.342 137.008 291.69 137.008ZM289.124 132.906H294.28V131.711H289.124V132.906ZM305.545 129.531V134.98H304.643V129.531H305.545ZM305.557 135.52V137.969H299.709V139.094H305.932V139.832H298.807V137.289H304.643V136.246H298.783V135.52H305.557ZM298.42 129.953V131.488H301.49V129.953H302.404V134.512H297.506V129.953H298.42ZM298.42 133.773H301.49V132.203H298.42V133.773ZM315.568 129.531V135.953H314.654V129.531H315.568ZM312.544 130.352V131.113H308.525V134.16C310.763 134.16 312.064 134.09 313.576 133.785L313.681 134.559C312.111 134.852 310.775 134.91 308.466 134.922H307.611V130.352H312.544ZM312.087 135.953C314.255 135.953 315.591 136.691 315.603 137.945C315.591 139.211 314.255 139.938 312.087 139.949C309.896 139.938 308.572 139.211 308.572 137.945C308.572 136.691 309.896 135.953 312.087 135.953ZM312.087 136.691C310.47 136.691 309.497 137.16 309.497 137.945C309.497 138.73 310.47 139.199 312.087 139.199C313.693 139.199 314.689 138.73 314.689 137.945C314.689 137.16 313.693 136.691 312.087 136.691ZM320.274 139L324.164 131.512V131.453H319.676V130.516H325.254V131.5L321.375 139H320.274ZM335.382 134.828V135.59H325.89V134.828H335.382ZM331.082 129.508V130.551H334.421V131.301H331.14C331.216 132.455 332.869 133.252 334.82 133.434L334.539 134.148C332.81 133.967 331.269 133.346 330.636 132.297C329.998 133.346 328.451 133.967 326.734 134.148L326.441 133.434C328.392 133.252 330.044 132.455 330.132 131.301H326.875V130.551H330.179V129.508H331.082ZM330.636 136.48C332.898 136.48 334.21 137.09 334.222 138.203C334.21 139.328 332.898 139.926 330.636 139.926C328.375 139.926 327.039 139.328 327.039 138.203C327.039 137.09 328.375 136.48 330.636 136.48ZM330.636 137.172C328.949 137.172 327.964 137.547 327.976 138.203C327.964 138.859 328.949 139.223 330.636 139.211C332.3 139.223 333.296 138.859 333.296 138.203C333.296 137.547 332.3 137.172 330.636 137.172Z" fill="#666666"/>
<path d="M88.3281 151.531V161.949H87.4492V156.488H85.9141V161.41H85.0703V151.766H85.9141V155.727H87.4492V151.531H88.3281ZM83.7109 152.809V153.57H80.7227V158.586C82.1582 158.58 83.1543 158.527 84.3086 158.293L84.3906 159.066C83.1367 159.324 82.0703 159.371 80.4766 159.371H79.8086V152.809H83.7109ZM98.972 159.91V160.672H89.433V159.91H92.0931V157.426H90.3002V156.664H91.9291V153.266H90.2767V152.504H98.058V153.266H96.4056V156.664H98.0345V157.426H96.2416V159.91H98.972ZM92.8431 156.664H95.5033V153.266H92.8431V156.664ZM93.0189 159.91H95.3275V157.426H93.0189V159.91ZM108.081 151.543V159.254H107.155V155.246H104.694V157.473H99.9714V152.234H100.885V154.086H103.792V152.234H104.694V154.473H107.155V151.543H108.081ZM108.315 160.953V161.727H101.343V158.492H102.268V160.953H108.315ZM100.885 156.711H103.792V154.812H100.885V156.711ZM118.455 153.078V153.84H109.924V153.078H113.744V151.707H114.647V153.078H118.455ZM118.994 159.969V160.73H109.455V159.969H113.744V158.504C111.893 158.404 110.768 157.684 110.779 156.512C110.768 155.27 112.08 154.543 114.201 154.555C116.299 154.543 117.623 155.27 117.623 156.512C117.623 157.684 116.486 158.404 114.647 158.504V159.969H118.994ZM114.201 155.281C112.643 155.281 111.693 155.738 111.705 156.512C111.693 157.309 112.643 157.754 114.201 157.766C115.736 157.754 116.686 157.309 116.686 156.512C116.686 155.738 115.736 155.281 114.201 155.281ZM123.22 159.875C122.809 159.875 122.458 159.535 122.47 159.113C122.458 158.703 122.809 158.363 123.22 158.363C123.63 158.363 123.97 158.703 123.97 159.113C123.97 159.535 123.63 159.875 123.22 159.875ZM123.22 155.164C122.809 155.164 122.458 154.824 122.47 154.402C122.458 153.992 122.809 153.652 123.22 153.652C123.63 153.652 123.97 153.992 123.97 154.402C123.97 154.824 123.63 155.164 123.22 155.164ZM130.832 152.516V161H129.765V153.617H129.718L127.656 154.988V153.922L129.765 152.516H130.832ZM135.499 161.117C133.964 161.117 132.804 160.168 132.745 158.867H133.765C133.847 159.629 134.585 160.191 135.499 160.191C136.6 160.191 137.397 159.383 137.397 158.316C137.397 157.215 136.565 156.406 135.429 156.395C134.714 156.383 134.163 156.605 133.847 157.156H132.827L133.425 152.516H138.018V153.453H134.304L133.987 155.938H134.069C134.444 155.645 135.018 155.445 135.616 155.445C137.233 155.445 138.429 156.641 138.429 158.293C138.429 159.934 137.186 161.117 135.499 161.117ZM142.463 161.117C140.776 161.117 139.569 160.215 139.51 158.867H140.576C140.635 159.676 141.444 160.18 142.451 160.18C143.565 160.18 144.385 159.57 144.385 158.691C144.385 157.766 143.647 157.109 142.322 157.109H141.631V156.184H142.322C143.354 156.184 144.069 155.609 144.069 154.73C144.069 153.887 143.447 153.312 142.487 153.312C141.584 153.312 140.752 153.816 140.705 154.648H139.686C139.744 153.301 140.987 152.398 142.498 152.398C144.115 152.398 145.1 153.453 145.088 154.672C145.1 155.633 144.537 156.348 143.647 156.594V156.652C144.748 156.828 145.428 157.613 145.416 158.691C145.428 160.086 144.151 161.117 142.463 161.117ZM149.509 161.117C147.822 161.117 146.615 160.215 146.556 158.867H147.623C147.681 159.676 148.49 160.18 149.498 160.18C150.611 160.18 151.431 159.57 151.431 158.691C151.431 157.766 150.693 157.109 149.369 157.109H148.677V156.184H149.369C150.4 156.184 151.115 155.609 151.115 154.73C151.115 153.887 150.494 153.312 149.533 153.312C148.63 153.312 147.798 153.816 147.752 154.648H146.732C146.791 153.301 148.033 152.398 149.545 152.398C151.162 152.398 152.146 153.453 152.134 154.672C152.146 155.633 151.584 156.348 150.693 156.594V156.652C151.795 156.828 152.474 157.613 152.463 158.691C152.474 160.086 151.197 161.117 149.509 161.117ZM157.282 156.301V157.227H153.567V156.301H157.282ZM158.457 161L162.348 153.512V153.453H157.86V152.516H163.438V153.5L159.559 161H158.457ZM167.121 161.117C165.34 161.117 164.097 160.133 164.109 158.75C164.097 157.648 164.859 156.746 165.832 156.594V156.547C164.988 156.348 164.437 155.574 164.437 154.648C164.437 153.348 165.574 152.398 167.121 152.398C168.668 152.398 169.804 153.348 169.816 154.648C169.804 155.574 169.242 156.348 168.41 156.547V156.594C169.371 156.746 170.132 157.648 170.144 158.75C170.132 160.133 168.89 161.117 167.121 161.117ZM167.121 160.191C168.34 160.191 169.09 159.582 169.09 158.691C169.09 157.754 168.257 157.062 167.121 157.062C165.984 157.062 165.14 157.754 165.164 158.691C165.14 159.582 165.902 160.191 167.121 160.191ZM167.121 156.172C168.082 156.172 168.785 155.586 168.785 154.73C168.785 153.887 168.117 153.312 167.121 153.312C166.113 153.312 165.457 153.887 165.457 154.73C165.457 155.586 166.148 156.172 167.121 156.172ZM174.155 161.117C172.679 161.094 171.062 160.227 171.062 157.086C171.062 154.086 172.292 152.398 174.284 152.398C175.772 152.398 176.815 153.312 177.038 154.648H175.995C175.796 153.898 175.233 153.336 174.284 153.336C172.89 153.336 172.058 154.531 172.058 156.57H172.163C172.655 155.867 173.429 155.445 174.343 155.445C175.855 155.445 177.108 156.617 177.108 158.258C177.108 159.852 175.937 161.129 174.155 161.117ZM174.155 160.191C175.257 160.191 176.077 159.324 176.089 158.27C176.077 157.227 175.292 156.371 174.179 156.371C173.065 156.371 172.21 157.273 172.198 158.281C172.198 159.277 173.019 160.191 174.155 160.191ZM181.202 152.516V161H180.135V153.617H180.088L178.026 154.988V153.922L180.135 152.516H181.202Z" fill="#666666"/>
<path d="M83.793 174.75V177.469H85.375V173.754H86.2539V183.422H85.375V178.23H83.793V181.148H79.8086V174.75H83.793ZM80.6758 175.488V180.41H82.9258V175.488H80.6758ZM88.3516 173.531V183.949H87.4609V173.531H88.3516ZM92.3861 173.918C93.9447 173.93 95.0814 174.867 95.0814 176.227C95.0814 177.586 93.9447 178.523 92.3861 178.523C90.8041 178.523 89.6791 177.586 89.6791 176.227C89.6791 174.867 90.8041 173.93 92.3861 173.918ZM92.3861 174.691C91.3431 174.691 90.5697 175.324 90.5814 176.227C90.5697 177.141 91.3431 177.773 92.3861 177.773C93.4173 177.773 94.1908 177.141 94.1908 176.227C94.1908 175.324 93.4173 174.691 92.3861 174.691ZM98.0345 173.531V178.887H97.1205V173.531H98.0345ZM98.0345 179.391V181.898H92.1869V183.07H98.4095V183.809H91.2845V181.207H97.1205V180.129H91.2611V179.391H98.0345ZM103.197 181.875C102.787 181.875 102.436 181.535 102.447 181.113C102.436 180.703 102.787 180.363 103.197 180.363C103.608 180.363 103.947 180.703 103.947 181.113C103.947 181.535 103.608 181.875 103.197 181.875ZM103.197 177.164C102.787 177.164 102.436 176.824 102.447 176.402C102.436 175.992 102.787 175.652 103.197 175.652C103.608 175.652 103.947 175.992 103.947 176.402C103.947 176.824 103.608 177.164 103.197 177.164ZM107.821 176.637H108.829V183.457C108.829 184.652 108.22 185.391 106.977 185.391H106.766V184.453H106.966C107.552 184.453 107.821 184.09 107.821 183.457V176.637ZM108.313 175.582C107.927 175.582 107.61 175.289 107.61 174.914C107.61 174.539 107.927 174.246 108.313 174.246C108.7 174.246 109.028 174.539 109.028 174.914C109.028 175.289 108.7 175.582 108.313 175.582ZM112.676 183.129C110.942 183.129 109.77 181.828 109.77 179.848C109.77 177.867 110.942 176.555 112.676 176.555C114.399 176.555 115.559 177.867 115.559 179.848C115.559 181.828 114.399 183.129 112.676 183.129ZM112.676 182.238C113.953 182.238 114.551 181.113 114.551 179.848C114.551 178.582 113.953 177.445 112.676 177.445C111.375 177.445 110.778 178.582 110.778 179.848C110.778 181.113 111.375 182.238 112.676 182.238ZM119.125 183.129C117.39 183.129 116.218 181.828 116.218 179.848C116.218 177.867 117.39 176.555 119.125 176.555C120.847 176.555 122.007 177.867 122.007 179.848C122.007 181.828 120.847 183.129 119.125 183.129ZM119.125 182.238C120.402 182.238 121 181.113 121 179.848C121 178.582 120.402 177.445 119.125 177.445C117.824 177.445 117.226 178.582 117.226 179.848C117.226 181.113 117.824 182.238 119.125 182.238ZM123.979 179.18V183H122.972V176.637H123.944V177.633H124.026C124.331 176.988 124.917 176.555 125.89 176.555C127.179 176.555 128.034 177.34 128.034 178.957V183H127.026V179.027C127.026 178.043 126.487 177.457 125.585 177.457C124.659 177.457 123.979 178.078 123.979 179.18ZM131.869 185.52C130.334 185.52 129.291 184.852 129.174 183.668H130.229C130.369 184.312 130.967 184.641 131.869 184.641C132.959 184.641 133.627 184.172 133.627 183.117V181.828H133.545C133.334 182.18 132.924 182.906 131.694 182.906C130.147 182.906 128.987 181.734 128.987 179.73C128.987 177.773 130.112 176.555 131.705 176.555C132.936 176.555 133.334 177.305 133.569 177.645H133.651V176.637H134.635V183.176C134.635 184.816 133.416 185.52 131.869 185.52ZM131.834 182.004C132.994 182.004 133.651 181.172 133.651 179.766C133.651 178.406 133.018 177.457 131.834 177.457C130.615 177.457 130.006 178.488 130.006 179.766C130.006 181.09 130.627 182.004 131.834 182.004ZM136.888 179.18V183H135.88V176.637H136.853V177.633H136.935C137.24 176.988 137.826 176.555 138.798 176.555C140.088 176.555 140.943 177.34 140.943 178.957V183H139.935V179.027C139.935 178.043 139.396 177.457 138.494 177.457C137.568 177.457 136.888 178.078 136.888 179.18ZM141.895 181.195C141.895 179.73 143.185 179.402 144.286 179.32C144.69 179.291 145.722 179.238 146.009 179.227V178.711C146.009 177.902 145.528 177.434 144.567 177.434C143.759 177.434 143.278 177.809 143.138 178.289H142.083C142.212 177.27 143.208 176.555 144.614 176.555C145.446 176.555 147.005 176.801 147.005 178.805V183H146.009V182.133H145.962C145.751 182.566 145.165 183.152 144.063 183.152C142.856 183.152 141.895 182.438 141.895 181.195ZM142.903 181.242C142.903 181.91 143.466 182.25 144.239 182.25C145.376 182.25 146.009 181.488 146.009 180.691V180.047L144.403 180.164C143.489 180.223 142.903 180.551 142.903 181.242ZM152.457 181.887C151.285 181.887 150.43 180.938 150.43 179.414C150.43 177.902 151.297 176.953 152.469 176.953C153.313 176.953 153.664 177.492 153.805 177.762H153.864V177.047H154.754V180.469C154.766 180.926 154.965 181.148 155.34 181.148C156.067 181.148 156.547 180.305 156.559 179.086C156.571 176.871 154.965 175.43 152.727 175.43C150.407 175.441 148.907 177.234 148.907 179.414C148.907 181.793 150.207 183.434 152.68 183.41C153.5 183.398 154.039 183.352 154.754 183.152V183.949C154.145 184.113 153.453 184.219 152.68 184.219C149.821 184.219 148.063 182.391 148.063 179.414C148.051 176.648 149.996 174.621 152.727 174.621C155.528 174.621 157.414 176.531 157.403 179.051C157.403 180.867 156.465 181.934 155.282 181.934C154.543 181.934 153.987 181.518 153.946 180.973H153.864C153.723 181.23 153.371 181.887 152.457 181.887ZM152.61 181.031C153.442 181.031 153.864 180.375 153.875 179.402C153.864 178.453 153.453 177.809 152.61 177.809C151.789 177.809 151.344 178.512 151.344 179.402C151.344 180.316 151.801 181.031 152.61 181.031ZM158.461 176.637H159.468V183.457C159.468 184.652 158.859 185.391 157.617 185.391H157.406V184.453H157.605C158.191 184.453 158.461 184.09 158.461 183.457V176.637ZM158.953 175.582C158.566 175.582 158.25 175.289 158.25 174.914C158.25 174.539 158.566 174.246 158.953 174.246C159.34 174.246 159.668 174.539 159.668 174.914C159.668 175.289 159.34 175.582 158.953 175.582ZM163.315 183.129C161.581 183.129 160.409 181.828 160.409 179.848C160.409 177.867 161.581 176.555 163.315 176.555C165.038 176.555 166.198 177.867 166.198 179.848C166.198 181.828 165.038 183.129 163.315 183.129ZM163.315 182.238C164.593 182.238 165.19 181.113 165.19 179.848C165.19 178.582 164.593 177.445 163.315 177.445C162.015 177.445 161.417 178.582 161.417 179.848C161.417 181.113 162.015 182.238 163.315 182.238ZM169.764 183.129C168.03 183.129 166.858 181.828 166.858 179.848C166.858 177.867 168.03 176.555 169.764 176.555C171.487 176.555 172.647 177.867 172.647 179.848C172.647 181.828 171.487 183.129 169.764 183.129ZM169.764 182.238C171.041 182.238 171.639 181.113 171.639 179.848C171.639 178.582 171.041 177.445 169.764 177.445C168.463 177.445 167.866 178.582 167.866 179.848C167.866 181.113 168.463 182.238 169.764 182.238ZM174.619 179.18V183H173.611V176.637H174.584V177.633H174.666C174.97 176.988 175.556 176.555 176.529 176.555C177.818 176.555 178.674 177.34 178.674 178.957V183H177.666V179.027C177.666 178.043 177.127 177.457 176.224 177.457C175.299 177.457 174.619 178.078 174.619 179.18ZM182.509 185.52C180.974 185.52 179.931 184.852 179.814 183.668H180.868C181.009 184.312 181.607 184.641 182.509 184.641C183.599 184.641 184.267 184.172 184.267 183.117V181.828H184.185C183.974 182.18 183.564 182.906 182.333 182.906C180.786 182.906 179.626 181.734 179.626 179.73C179.626 177.773 180.751 176.555 182.345 176.555C183.575 176.555 183.974 177.305 184.208 177.645H184.29V176.637H185.275V183.176C185.275 184.816 184.056 185.52 182.509 185.52ZM182.474 182.004C183.634 182.004 184.29 181.172 184.29 179.766C184.29 178.406 183.657 177.457 182.474 177.457C181.255 177.457 180.646 178.488 180.646 179.766C180.646 181.09 181.267 182.004 182.474 182.004ZM189.098 185.52C187.563 185.52 186.52 184.852 186.403 183.668H187.457C187.598 184.312 188.196 184.641 189.098 184.641C190.188 184.641 190.856 184.172 190.856 183.117V181.828H190.774C190.563 182.18 190.153 182.906 188.922 182.906C187.375 182.906 186.215 181.734 186.215 179.73C186.215 177.773 187.34 176.555 188.934 176.555C190.165 176.555 190.563 177.305 190.797 177.645H190.879V176.637H191.864V183.176C191.864 184.816 190.645 185.52 189.098 185.52ZM189.063 182.004C190.223 182.004 190.879 181.172 190.879 179.766C190.879 178.406 190.247 177.457 189.063 177.457C187.844 177.457 187.235 178.488 187.235 179.766C187.235 181.09 187.856 182.004 189.063 182.004ZM195.711 183.129C193.976 183.129 192.805 181.828 192.805 179.848C192.805 177.867 193.976 176.555 195.711 176.555C197.433 176.555 198.594 177.867 198.594 179.848C198.594 181.828 197.433 183.129 195.711 183.129ZM195.711 182.238C196.988 182.238 197.586 181.113 197.586 179.848C197.586 178.582 196.988 177.445 195.711 177.445C194.41 177.445 193.812 178.582 193.812 179.848C193.812 181.113 194.41 182.238 195.711 182.238ZM200.566 179.18V183H199.558V176.637H200.53V177.633H200.613C200.917 176.988 201.503 176.555 202.476 176.555C203.765 176.555 204.62 177.34 204.62 178.957V183H203.613V179.027C203.613 178.043 203.073 177.457 202.171 177.457C201.245 177.457 200.566 178.078 200.566 179.18ZM205.573 181.195C205.573 179.73 206.862 179.402 207.963 179.32C208.368 179.291 209.399 179.238 209.686 179.227V178.711C209.686 177.902 209.206 177.434 208.245 177.434C207.436 177.434 206.956 177.809 206.815 178.289H205.76C205.889 177.27 206.885 176.555 208.292 176.555C209.124 176.555 210.682 176.801 210.682 178.805V183H209.686V182.133H209.639C209.428 182.566 208.842 183.152 207.741 183.152C206.534 183.152 205.573 182.438 205.573 181.195ZM206.581 181.242C206.581 181.91 207.143 182.25 207.917 182.25C209.053 182.25 209.686 181.488 209.686 180.691V180.047L208.081 180.164C207.167 180.223 206.581 180.551 206.581 181.242ZM211.939 183V176.637H212.912V177.609H212.982C213.217 176.965 213.873 176.531 214.623 176.531C214.775 176.531 215.033 176.543 215.15 176.555V177.574C215.08 177.551 214.799 177.504 214.541 177.504C213.627 177.504 212.947 178.137 212.947 178.992V183H211.939ZM215.458 181.195C215.458 179.73 216.747 179.402 217.849 179.32C218.253 179.291 219.284 179.238 219.572 179.227V178.711C219.572 177.902 219.091 177.434 218.13 177.434C217.322 177.434 216.841 177.809 216.7 178.289H215.646C215.775 177.27 216.771 176.555 218.177 176.555C219.009 176.555 220.568 176.801 220.568 178.805V183H219.572V182.133H219.525C219.314 182.566 218.728 183.152 217.626 183.152C216.419 183.152 215.458 182.438 215.458 181.195ZM216.466 181.242C216.466 181.91 217.029 182.25 217.802 182.25C218.939 182.25 219.572 181.488 219.572 180.691V180.047L217.966 180.164C217.052 180.223 216.466 180.551 216.466 181.242ZM222.54 183.07C222.13 183.07 221.778 182.73 221.79 182.309C221.778 181.898 222.13 181.559 222.54 181.559C222.95 181.559 223.29 181.898 223.29 182.309C223.29 182.73 222.95 183.07 222.54 183.07ZM227.113 183.129C225.309 183.129 224.207 181.758 224.207 179.848C224.207 177.914 225.355 176.555 227.09 176.555C228.449 176.555 229.457 177.352 229.621 178.559H228.613C228.473 177.973 227.957 177.445 227.113 177.445C225.977 177.445 225.215 178.383 225.215 179.812C225.215 181.289 225.953 182.227 227.113 182.227C227.863 182.227 228.438 181.828 228.613 181.125H229.621C229.457 182.262 228.531 183.129 227.113 183.129ZM233.105 183.129C231.37 183.129 230.199 181.828 230.199 179.848C230.199 177.867 231.37 176.555 233.105 176.555C234.827 176.555 235.988 177.867 235.988 179.848C235.988 181.828 234.827 183.129 233.105 183.129ZM233.105 182.238C234.382 182.238 234.98 181.113 234.98 179.848C234.98 178.582 234.382 177.445 233.105 177.445C231.804 177.445 231.206 178.582 231.206 179.848C231.206 181.113 231.804 182.238 233.105 182.238ZM237.667 183.07C237.257 183.07 236.905 182.73 236.917 182.309C236.905 181.898 237.257 181.559 237.667 181.559C238.077 181.559 238.417 181.898 238.417 182.309C238.417 182.73 238.077 183.07 237.667 183.07ZM239.639 183V174.516H240.647V179.449H240.764L243.518 176.637H244.76L242.076 179.355L244.959 183H243.682L241.326 180L240.647 180.621V183H239.639ZM245.478 183V176.637H246.451V177.609H246.521C246.755 176.965 247.412 176.531 248.162 176.531C248.314 176.531 248.572 176.543 248.689 176.555V177.574C248.619 177.551 248.337 177.504 248.08 177.504C247.165 177.504 246.486 178.137 246.486 178.992V183H245.478Z" fill="#666666"/>
<path d="M88.4219 197.078V197.84H79.8906V197.078H83.7109V195.707H84.6133V197.078H88.4219ZM88.9609 203.969V204.73H79.4219V203.969H83.7109V202.504C81.8594 202.404 80.7344 201.684 80.7461 200.512C80.7344 199.27 82.0469 198.543 84.168 198.555C86.2656 198.543 87.5898 199.27 87.5898 200.512C87.5898 201.684 86.4531 202.404 84.6133 202.504V203.969H88.9609ZM84.168 199.281C82.6094 199.281 81.6602 199.738 81.6719 200.512C81.6602 201.309 82.6094 201.754 84.168 201.766C85.7031 201.754 86.6523 201.309 86.6523 200.512C86.6523 199.738 85.7031 199.281 84.168 199.281ZM94.6244 197.066C94.6244 198.848 96.6634 200.441 98.4798 200.781L98.058 201.555C96.4877 201.191 94.8295 200.072 94.1556 198.531C93.4818 200.066 91.8295 201.186 90.2533 201.555L89.8314 200.781C91.6361 200.43 93.6634 198.859 93.6634 197.066V196.27H94.6244V197.066ZM98.972 203.77V204.531H89.433V203.77H98.972ZM105.046 196.305V197.055H100.979V198.367H104.753V199.117H100.979V200.488C103.2 200.488 104.43 200.447 105.901 200.207L105.995 200.957C104.471 201.203 103.194 201.25 100.897 201.25H100.053V196.305H105.046ZM108.046 195.543V202H107.132V195.543H108.046ZM104.589 202.152C106.757 202.141 108.093 202.832 108.093 204.027C108.093 205.246 106.757 205.926 104.589 205.926C102.374 205.926 101.061 205.246 101.061 204.027C101.061 202.832 102.374 202.141 104.589 202.152ZM104.589 202.879C102.948 202.879 101.975 203.312 101.975 204.027C101.975 204.766 102.948 205.199 104.589 205.199C106.182 205.199 107.19 204.766 107.19 204.027C107.19 203.312 106.182 202.879 104.589 202.879ZM118.361 195.531V205.949H117.483V195.531H118.361ZM116.252 195.789V205.41H115.385V200.043H113.627V199.293H115.385V195.789H116.252ZM112.514 198.508C112.514 200.312 113.322 202.105 114.764 202.938L114.201 203.617C113.176 203.002 112.449 201.877 112.092 200.547C111.711 201.982 110.955 203.207 109.912 203.863L109.326 203.172C110.779 202.305 111.623 200.406 111.623 198.508V197.523H109.619V196.762H114.424V197.523H112.514V198.508ZM124.177 202.117C126.415 202.117 127.833 202.82 127.833 204.027C127.833 205.223 126.415 205.926 124.177 205.926C121.951 205.926 120.533 205.223 120.533 204.027C120.533 202.82 121.951 202.117 124.177 202.117ZM124.177 202.82C122.513 202.832 121.435 203.289 121.447 204.027C121.435 204.754 122.513 205.199 124.177 205.199C125.841 205.199 126.908 204.754 126.919 204.027C126.908 203.289 125.841 202.832 124.177 202.82ZM127.751 196.07V196.949C127.751 197.793 127.751 198.637 127.458 199.715L126.556 199.609C126.837 198.531 126.837 197.77 126.837 196.949V196.82H120.603V196.07H127.751ZM128.958 200.395V201.145H119.478V200.395H123.404V198.379H124.306V200.395H128.958ZM133.005 198.73C132.993 200.406 134.2 202.246 135.712 202.961L135.184 203.688C134.013 203.119 133.022 201.877 132.559 200.465C132.079 202 131.03 203.348 129.864 203.945L129.302 203.219C130.802 202.492 132.091 200.512 132.102 198.73V197.371H129.677V196.609H135.348V197.371H133.005V198.73ZM137.54 195.531V199.75H139.286V200.535H137.54V205.949H136.626V195.531H137.54ZM143.242 203.875C142.832 203.875 142.48 203.535 142.492 203.113C142.48 202.703 142.832 202.363 143.242 202.363C143.652 202.363 143.992 202.703 143.992 203.113C143.992 203.535 143.652 203.875 143.242 203.875ZM143.242 199.164C142.832 199.164 142.48 198.824 142.492 198.402C142.48 197.992 142.832 197.652 143.242 197.652C143.652 197.652 143.992 197.992 143.992 198.402C143.992 198.824 143.652 199.164 143.242 199.164ZM150.268 196.34C151.803 196.352 152.893 197.758 152.905 199.973C152.893 202.188 151.803 203.594 150.268 203.594C148.721 203.594 147.643 202.188 147.643 199.973C147.643 197.758 148.721 196.352 150.268 196.34ZM150.268 197.16C149.237 197.172 148.51 198.273 148.51 199.973C148.51 201.672 149.237 202.773 150.268 202.773C151.311 202.773 152.014 201.672 152.014 199.973C152.014 198.273 151.311 197.172 150.268 197.16ZM155.541 195.531V199.691H157.287V200.488H155.541V205.949H154.627V195.531H155.541ZM162.728 196.586V203.301H157.923V196.586H162.728ZM158.814 197.324V202.551H161.814V197.324H158.814ZM165.552 195.531V199.691H167.298V200.488H165.552V205.949H164.638V195.531H165.552ZM172.845 196.832C172.833 198.121 174.591 199.176 176.431 199.41L176.067 200.16C174.386 199.896 172.815 199.064 172.247 197.84C171.685 199.064 170.12 199.896 168.427 200.16L168.087 199.41C169.927 199.176 171.649 198.121 171.649 196.832V196.809H168.368V196.047H176.149V196.809H172.845V196.832ZM175.938 204.953V205.727H168.731V202.762H169.657V204.953H175.938ZM177.028 201.156V201.918H167.501V201.156H171.79V199.41H172.692V201.156H177.028ZM186.336 195.531V201.988H185.457V195.531H186.336ZM184.45 195.719V201.953H183.571V201.355H181.719V200.688H183.571V195.719H184.45ZM177.453 199.586C178.895 199.586 181.25 199.562 182.996 199.293L183.067 199.914C182.346 200.066 181.549 200.16 180.758 200.219V201.953H179.868V200.266C179.012 200.307 178.203 200.312 177.559 200.312L177.453 199.586ZM180.219 202.363V203.348H185.422V202.363H186.336V205.809H179.317V202.363H180.219ZM180.219 205.07H185.422V204.086H180.219V205.07ZM180.278 195.906C181.637 195.906 182.563 196.492 182.563 197.453C182.563 198.391 181.637 198.988 180.278 198.988C178.918 198.988 178.004 198.391 178.004 197.453C178.004 196.492 178.918 195.906 180.278 195.906ZM180.278 196.574C179.399 196.562 178.848 196.902 178.848 197.453C178.848 197.992 179.399 198.32 180.278 198.32C181.157 198.32 181.719 197.992 181.731 197.453C181.719 196.902 181.157 196.562 180.278 196.574ZM191.191 198.332C191.191 200.219 192.398 202.117 193.91 202.809L193.359 203.559C192.175 202.949 191.197 201.701 190.734 200.219C190.271 201.777 189.293 203.113 188.109 203.746L187.511 203.008C189.035 202.258 190.254 200.254 190.254 198.332V196.434H191.191V198.332ZM196.16 195.531V205.973H195.246V199.844H192.773V199.094H195.246V195.531H196.16ZM206.124 195.531V205.973H205.198V195.531H206.124ZM199.058 196.422V199.176H202.163V196.422H203.065V203.453H198.144V196.422H199.058ZM199.058 202.68H202.163V199.914H199.058V202.68ZM212.737 197.066C212.737 198.848 214.776 200.441 216.592 200.781L216.17 201.555C214.6 201.191 212.942 200.072 212.268 198.531C211.594 200.066 209.942 201.186 208.366 201.555L207.944 200.781C209.748 200.43 211.776 198.859 211.776 197.066V196.27H212.737V197.066ZM217.084 203.77V204.531H207.545V203.77H217.084Z" fill="#666666"/>
<mask id="path-13-inside-2_116_629" fill="white">
<path d="M79 216H242V230H79V216Z"/>
</mask>
<path d="M241 216V230H243V216H241Z" fill="#666666" mask="url(#path-13-inside-2_116_629)"/>
<path d="M85.6094 221.281C85.3984 220.191 84.4961 219.582 83.418 219.582C81.9531 219.582 80.8633 220.707 80.8633 222.758C80.8633 224.82 81.9648 225.934 83.418 225.934C84.4844 225.934 85.3867 225.336 85.6094 224.258L86.9102 224.27C86.6406 225.945 85.2695 227.117 83.4062 227.117C81.1914 227.117 79.5859 225.465 79.5859 222.758C79.5859 220.039 81.2031 218.398 83.4062 218.398C85.1992 218.398 86.6172 219.453 86.9102 221.281H85.6094ZM90.5345 227.129C88.7298 227.129 87.558 225.816 87.558 223.848C87.558 221.867 88.7298 220.555 90.5345 220.555C92.3275 220.555 93.4994 221.867 93.4994 223.848C93.4994 225.816 92.3275 227.129 90.5345 227.129ZM90.5345 226.086C91.683 226.086 92.2338 225.066 92.2338 223.848C92.2338 222.629 91.683 221.586 90.5345 221.586C89.3627 221.586 88.8119 222.629 88.8119 223.848C88.8119 225.066 89.3627 226.086 90.5345 226.086ZM95.6237 223.227V227H94.3698V220.637H95.5769V221.68H95.6472C95.9519 221 96.573 220.555 97.5222 220.555C98.8347 220.555 99.6902 221.375 99.6902 222.957V227H98.448V223.109C98.448 222.184 97.9441 221.633 97.1003 221.633C96.2448 221.633 95.6237 222.207 95.6237 223.227ZM103.83 220.637V221.633H102.529V225.125C102.529 225.84 102.893 225.969 103.291 225.98C103.467 225.98 103.748 225.957 103.924 225.945V227.035C103.748 227.059 103.479 227.082 103.139 227.082C102.154 227.082 101.275 226.543 101.287 225.383V221.633H100.35V220.637H101.287V219.113H102.529V220.637H103.83ZM104.396 225.207C104.396 223.754 105.626 223.379 106.775 223.297C107.197 223.268 108.152 223.215 108.451 223.203L108.439 222.699C108.439 221.984 108.005 221.562 107.15 221.562C106.412 221.562 105.966 221.902 105.837 222.371H104.595C104.712 221.316 105.697 220.555 107.197 220.555C108.205 220.555 109.693 220.93 109.693 222.77V227H108.474V226.133H108.427C108.181 226.613 107.595 227.141 106.54 227.141C105.333 227.141 104.396 226.449 104.396 225.207ZM105.615 225.219C105.615 225.828 106.119 226.145 106.822 226.145C107.841 226.145 108.451 225.465 108.451 224.703V224.117L106.951 224.223C106.13 224.281 105.615 224.586 105.615 225.219ZM113.54 227.129C111.688 227.129 110.563 225.758 110.563 223.848C110.563 221.902 111.723 220.555 113.516 220.555C114.97 220.555 116.024 221.41 116.153 222.699H114.934C114.805 222.102 114.325 221.598 113.54 221.598C112.509 221.598 111.817 222.453 111.817 223.812C111.817 225.207 112.497 226.062 113.54 226.062C114.243 226.062 114.782 225.676 114.934 224.984H116.153C116.013 226.215 115.04 227.129 113.54 227.129ZM119.953 220.637V221.633H118.653V225.125C118.653 225.84 119.016 225.969 119.414 225.98C119.59 225.98 119.871 225.957 120.047 225.945V227.035C119.871 227.059 119.602 227.082 119.262 227.082C118.278 227.082 117.399 226.543 117.41 225.383V221.633H116.473V220.637H117.41V219.113H118.653V220.637H119.953ZM135.268 222.406V223.168H130.967V224.281C132.936 224.363 134.096 225.008 134.108 226.109C134.096 227.27 132.76 227.926 130.522 227.926C128.26 227.926 126.924 227.27 126.924 226.109C126.924 225.008 128.078 224.363 130.065 224.281V223.168H125.776V222.406H135.268ZM130.522 224.984C128.846 224.996 127.85 225.406 127.862 226.109C127.85 226.801 128.846 227.211 130.522 227.211C132.174 227.211 133.182 226.801 133.182 226.109C133.182 225.406 132.174 224.996 130.522 224.984ZM134.424 218.023V218.773H131.119C131.178 219.945 132.901 220.854 134.74 221.047L134.401 221.773C132.696 221.568 131.096 220.807 130.522 219.641C129.953 220.807 128.36 221.568 126.643 221.773L126.315 221.047C128.119 220.854 129.854 219.945 129.924 218.773H126.643V218.023H134.424ZM144.142 218.586V219.629C144.13 220.906 144.13 222.336 143.755 224.434L142.818 224.328C143.216 222.336 143.216 220.871 143.216 219.629V219.348H136.795V218.586H144.142ZM145.279 225.711V226.473H135.787V225.711H139.513V221.984H140.416V225.711H145.279ZM155.548 221.691V222.465H153.86V227.949H152.946V217.531H153.86V221.691H155.548ZM147.145 218.562V224.527C148.669 224.521 150.222 224.404 151.938 224.047L152.056 224.832C150.263 225.195 148.645 225.301 147.063 225.301H146.231V218.562H147.145ZM163.871 217.531V221.68H165.618V222.453H163.871V227.973H162.957V217.531H163.871ZM160.953 218.504V222.23H157.157V224.668C159.09 224.668 160.438 224.604 162.02 224.305L162.114 225.066C160.473 225.371 159.078 225.441 157.075 225.453H156.243V221.469H160.039V219.266H156.219V218.504H160.953ZM171.554 219.113C171.554 220.273 172.339 221.469 173.64 221.996L173.147 222.688C172.157 222.283 171.478 221.51 171.132 220.59C170.757 221.621 170.013 222.529 168.999 223.004L168.483 222.301C169.843 221.691 170.663 220.309 170.663 219.066V217.977H171.554V219.113ZM177.319 217.543V223.109H176.44V217.543H177.319ZM175.269 217.742V223.027H174.378V220.273H172.761V219.512H174.378V217.742H175.269ZM177.319 223.566V225.992H171.343V227.082H177.741V227.832H170.429V225.289H176.417V224.305H170.405V223.566H177.319ZM187.108 217.531V227.973H186.194V222.312H184.166V221.539H186.194V217.531H187.108ZM183.534 218.504V222.148H179.795V224.68C181.588 224.68 182.889 224.627 184.412 224.34L184.483 225.113C182.912 225.395 181.565 225.453 179.678 225.465H178.881V221.387H182.643V219.266H178.846V218.504H183.534ZM199.689 217.531V227.949H198.775V217.531H199.689ZM191.204 225.172C192.095 225.166 193.114 225.16 194.169 225.125V223.988C192.921 223.854 192.107 223.145 192.118 222.102C192.107 220.93 193.114 220.168 194.614 220.168C196.114 220.168 197.134 220.93 197.134 222.102C197.134 223.133 196.325 223.842 195.095 223.977V225.09C196.103 225.049 197.122 224.973 198.083 224.844L198.153 225.547C195.833 225.922 193.278 225.957 191.345 225.957L191.204 225.172ZM197.814 218.82V219.57H191.427V218.82H194.169V217.543H195.095V218.82H197.814ZM194.614 220.883C193.653 220.883 192.974 221.375 192.974 222.102C192.974 222.828 193.653 223.297 194.614 223.285C195.587 223.297 196.255 222.828 196.255 222.102C196.255 221.375 195.587 220.883 194.614 220.883ZM209.747 217.543V225.453H208.821V224.375H206.665V223.707H208.821V217.543H209.747ZM210.004 226.953V227.727H202.598V224.68H203.524V226.953H210.004ZM201.098 222.371C203.043 222.359 205.645 222.348 207.883 222.066L207.942 222.734C207.01 222.881 206.038 222.975 205.082 223.027V225.09H204.157V223.074C203.102 223.121 202.1 223.127 201.227 223.121L201.098 222.371ZM204.52 217.965C206.043 217.965 207.086 218.691 207.098 219.781C207.086 220.895 206.043 221.586 204.52 221.586C202.985 221.586 201.942 220.895 201.942 219.781C201.942 218.691 202.985 217.965 204.52 217.965ZM204.52 218.668C203.5 218.656 202.809 219.113 202.821 219.781C202.809 220.461 203.5 220.906 204.52 220.906C205.504 220.906 206.207 220.461 206.219 219.781C206.207 219.113 205.504 218.656 204.52 218.668ZM222.421 217.543V225.184H221.507V217.543H222.421ZM222.749 226.953V227.727H215.695V224.48H216.609V226.953H222.749ZM217.511 219.172C217.499 220.754 218.589 222.184 220.136 222.746L219.655 223.484C218.448 223.021 217.511 222.084 217.054 220.883C216.591 222.16 215.642 223.186 214.429 223.672L213.925 222.957C215.507 222.348 216.573 220.812 216.573 219.172V218.129H217.511V219.172ZM227.381 219.77C227.381 221.07 228.506 222.23 230.042 222.688L229.596 223.402C228.389 223.045 227.422 222.254 226.96 221.223C226.503 222.365 225.553 223.262 224.311 223.672L223.866 222.969C225.401 222.453 226.479 221.188 226.479 219.77V219.547H224.124V218.809H226.479V217.484H227.405V218.809H229.737V219.547H227.381V219.77ZM232.467 217.531V223.848H231.542V221.281H229.409V220.52H231.542V217.531H232.467ZM229.01 224.129C231.178 224.129 232.503 224.809 232.503 226.027C232.503 227.234 231.178 227.926 229.01 227.926C226.842 227.926 225.518 227.234 225.518 226.027C225.518 224.809 226.842 224.129 229.01 224.129ZM229.01 224.844C227.417 224.855 226.42 225.289 226.432 226.027C226.42 226.754 227.417 227.199 229.01 227.199C230.616 227.199 231.588 226.754 231.588 226.027C231.588 225.289 230.616 224.855 229.01 224.844Z" fill="#666666"/>
</svg>
