<svg width="270" height="39" viewBox="0 0 270 39" fill="none" xmlns="http://www.w3.org/2000/svg">
<g clip-path="url(#clip0_159_458)">
<path d="M19.6167 4.30099V29.8935H16.6815V14.9532H0V26.2587C0 31.006 3.97816 34.8607 8.88567 34.8607H31.0296C33.791 34.8607 36.0308 32.694 36.0308 30.0229V0H24.0628C21.6091 0 19.6167 1.92736 19.6167 4.30099Z" fill="#0DCC5A"/>
<path d="M93.8173 12.237C88.3348 12.237 84.1694 16.4862 84.1694 21.7897C84.1694 27.0932 88.3348 31.4524 93.8173 31.4524C99.2998 31.4524 103.746 27.1514 103.746 21.8479C103.746 16.5379 99.2998 12.237 93.8173 12.237ZM93.8173 27.022C90.8554 27.022 88.4618 24.7001 88.4618 21.8414C88.4618 18.9763 90.8621 16.6608 93.8173 16.6608C96.7792 16.6608 99.1728 18.9827 99.1728 21.8414C99.1795 24.7066 96.7792 27.022 93.8173 27.022Z" fill="black"/>
<path d="M244.145 14.7657V12.4891H239.572V31.2H244.152V21.6537C244.152 19.9527 244.586 16.1497 249.026 16.402V16.3955V12.2239C246.9 12.3791 245.328 13.2393 244.145 14.7657Z" fill="black"/>
<path d="M182.2 12.2304C176.717 12.2304 172.271 16.5314 172.271 21.8349C172.271 27.1384 176.717 31.4394 182.2 31.4394C187.682 31.4394 192.128 27.1384 192.128 21.8349C192.128 16.5314 187.682 12.2304 182.2 12.2304ZM182.2 26.9896C179.258 26.9896 176.871 24.6807 176.871 21.8349C176.871 18.9891 179.258 16.6802 182.2 16.6802C185.142 16.6802 187.528 18.9891 187.528 21.8349C187.528 24.6807 185.142 26.9896 182.2 26.9896Z" fill="black"/>
<path d="M235.874 12.4892H231.288V14.1708C229.75 12.9225 227.965 12.237 225.585 12.237C220.102 12.237 215.556 16.538 215.556 21.8414C215.556 27.1449 220.062 31.4459 225.545 31.4459C228.473 31.4459 230.372 30.1912 231.288 29.0076V31.1937H235.874V12.4892ZM225.725 27.1967C222.649 27.1967 220.149 24.7842 220.149 21.8026C220.149 18.8275 222.643 16.4086 225.725 16.4086C228.801 16.4086 231.301 18.821 231.301 21.8026C231.294 24.7778 228.801 27.1967 225.725 27.1967Z" fill="black"/>
<path d="M270 12.4892H265.413V14.1708C263.875 12.9225 262.09 12.237 259.71 12.237C254.228 12.237 249.681 16.538 249.681 21.8414C249.681 27.1449 254.188 31.4459 259.67 31.4459C262.598 31.4459 264.497 30.1912 265.413 29.0076V31.1937H270V12.4892ZM259.844 27.1967C256.768 27.1967 254.268 24.7842 254.268 21.8026C254.268 18.821 256.762 16.4086 259.844 16.4086C262.919 16.4086 265.42 18.821 265.42 21.8026C265.42 24.7842 262.926 27.1967 259.844 27.1967Z" fill="black"/>
<path d="M72.2285 12.2371C66.746 12.2371 62.2998 16.5381 62.2998 21.8416C62.2998 27.1451 66.746 31.4461 72.2285 31.4461C77.711 31.4461 82.1572 27.1451 82.1572 21.8416C82.1572 16.5381 77.711 12.2371 72.2285 12.2371ZM72.2352 27.0222C69.2733 27.0222 66.8797 24.7003 66.8797 21.8416C66.8797 18.9764 69.28 16.661 72.2352 16.661C75.1904 16.661 77.5906 18.9829 77.5906 21.8416C77.5906 24.7068 75.1904 27.0222 72.2352 27.0222Z" fill="black"/>
<path d="M119.753 31.2002V20.6126C119.753 18.9504 118.957 16.6092 115.988 16.441C111.562 16.1888 111.128 19.9788 111.128 21.6733V31.2002H106.541V12.4893H111.114V14.8047C112.418 13.1295 114.183 12.2435 116.65 12.2435C116.65 12.2435 124.332 12.03 124.332 19.9917C124.332 27.9534 124.332 31.1937 124.332 31.1937H119.753V31.2002Z" fill="black"/>
<path d="M208.141 31.2002V20.6126C208.141 18.9504 207.346 16.6092 204.377 16.441C199.951 16.1888 199.516 19.9788 199.516 21.6733V31.2002H194.93V12.4893H199.503V14.8047C200.807 13.1295 202.572 12.2435 205.039 12.2435C205.039 12.2435 212.721 12.03 212.721 19.9917C212.721 27.9534 212.721 31.1937 212.721 31.1937H208.141V31.2002Z" fill="black"/>
<path d="M142.324 21.4663C142.324 24.3056 139.944 26.6081 137.009 26.6081C134.074 26.6081 131.693 24.3056 131.693 21.4663C131.693 18.627 134.074 16.3245 137.009 16.3245C139.951 16.3245 142.324 18.627 142.324 21.4663ZM133.151 32.4419H128.11C128.11 32.4419 129.554 39.0066 137.437 39.0066C143.621 39.0066 146.891 35.4947 146.891 29.7514V12.4892H142.317V14.0996C140.954 12.9937 139.389 12.3469 137.363 12.2499C132.757 12.0235 128.551 14.824 127.434 19.1574C125.857 25.2887 130.691 30.7733 136.768 30.7733C139.603 30.7733 141.435 29.5509 142.317 28.4126C142.317 28.4126 143.394 33.9812 139.095 35.1066C136.768 35.7146 134.107 34.932 133.151 32.4419Z" fill="black"/>
<path d="M164.883 21.4663C164.883 24.3056 162.503 26.6081 159.567 26.6081C156.632 26.6081 154.252 24.3056 154.252 21.4663C154.252 18.627 156.632 16.3245 159.567 16.3245C162.509 16.3245 164.883 18.627 164.883 21.4663ZM155.71 32.4419H150.668C150.668 32.4419 152.113 39.0066 159.995 39.0066C166.18 39.0066 169.449 35.4947 169.449 29.7514V12.4892H164.876V14.0996C163.512 12.9937 161.948 12.3469 159.922 12.2499C155.315 12.0235 151.11 14.824 149.993 19.1574C148.415 25.2887 153.249 30.7733 159.327 30.7733C162.162 30.7733 163.994 29.5509 164.876 28.4126C164.876 28.4126 165.953 33.9812 161.653 35.1066C159.327 35.7146 156.666 34.932 155.71 32.4419Z" fill="black"/>
<path d="M54.9118 3.6607V20.8129C54.9118 24.0985 52.1572 26.7632 48.7607 26.7632H46.3203V31.2H48.8877C54.7446 31.2 59.4984 26.608 59.4984 20.9358V3.6607H54.9118Z" fill="black"/>
</g>
<defs>
<clipPath id="clip0_159_458">
<rect width="270" height="39" fill="white"/>
</clipPath>
</defs>
</svg>
