<svg width="30" height="29" viewBox="0 0 30 29" fill="none" xmlns="http://www.w3.org/2000/svg">
<path fill-rule="evenodd" clip-rule="evenodd" d="M15.3329 27.2533C15.5542 27.2533 15.7755 27.2478 15.9965 27.2368C16.2176 27.2259 16.4383 27.2095 16.6586 27.1876C16.8789 27.1658 17.0986 27.1385 17.3175 27.1058C17.5365 27.0731 17.7545 27.0349 17.9716 26.9914C18.1887 26.948 18.4046 26.8991 18.6194 26.8449C18.8341 26.7907 19.0473 26.7313 19.2592 26.6665C19.471 26.6018 19.6811 26.5319 19.8896 26.4567C20.0979 26.3816 20.3044 26.3014 20.5089 26.2161C20.7135 26.1307 20.9158 26.0403 21.1159 25.945C21.316 25.8496 21.5137 25.7494 21.7089 25.6443C21.9041 25.5392 22.0966 25.4292 22.2865 25.3145C22.4763 25.1999 22.6633 25.0807 22.8473 24.9567C23.0314 24.8329 23.2124 24.7045 23.3902 24.5717C23.5679 24.4388 23.7424 24.3016 23.9135 24.1601C24.0846 24.0187 24.2522 23.873 24.4162 23.7233C24.5802 23.5735 24.7405 23.4198 24.897 23.2621C25.0536 23.1045 25.2061 22.943 25.3548 22.7777C25.5034 22.6125 25.6479 22.4436 25.7884 22.2713C25.9288 22.0989 26.065 21.9231 26.1969 21.744C26.3287 21.5649 26.4561 21.3826 26.5791 21.1971C26.7021 21.0117 26.8205 20.8234 26.9342 20.6321C27.0481 20.4409 27.1572 20.2469 27.2616 20.0502C27.3659 19.8536 27.4653 19.6544 27.56 19.4528C27.6546 19.2512 27.7443 19.0474 27.8291 18.8413C27.9138 18.6353 27.9934 18.4273 28.0679 18.2173C28.1425 18.0073 28.212 17.7956 28.2762 17.5822C28.3405 17.3688 28.3995 17.154 28.4533 16.9377C28.5071 16.7213 28.5556 16.5038 28.5987 16.2851C28.6419 16.0664 28.6797 15.8467 28.7122 15.6261C28.7447 15.4055 28.7717 15.1842 28.7935 14.9623C28.8152 14.7403 28.8314 14.518 28.8423 14.2952C28.8532 14.0725 28.8586 13.8497 28.8586 13.6266C28.8586 13.4036 28.8532 13.1807 28.8423 12.958C28.8314 12.7353 28.8152 12.513 28.7935 12.291C28.7717 12.069 28.7447 11.8478 28.7122 11.6272C28.6797 11.4066 28.6419 11.1869 28.5987 10.9682C28.5556 10.7495 28.5071 10.532 28.4533 10.3156C28.3995 10.0993 28.3405 9.88444 28.2762 9.67103C28.212 9.45762 28.1425 9.24593 28.0679 9.03596C27.9934 8.82599 27.9138 8.61798 27.8291 8.41195C27.7443 8.20591 27.6546 8.0021 27.56 7.8005C27.4653 7.5989 27.3659 7.39976 27.2616 7.20308C27.1572 7.00641 27.0481 6.81243 26.9342 6.62115C26.8205 6.42986 26.7021 6.24151 26.5791 6.05609C26.4561 5.87066 26.3287 5.68838 26.1969 5.50926C26.065 5.33014 25.9288 5.15438 25.7884 4.98199C25.6479 4.8096 25.5034 4.64078 25.3548 4.47554C25.2061 4.31031 25.0536 4.14884 24.897 3.99115C24.7405 3.83346 24.5802 3.67973 24.4162 3.52997C24.2522 3.3802 24.0846 3.23458 23.9135 3.0931C23.7424 2.95162 23.5679 2.81446 23.3902 2.68162C23.2124 2.54877 23.0314 2.4204 22.8473 2.2965C22.6633 2.1726 22.4763 2.05333 22.2865 1.93868C22.0966 1.82403 21.9041 1.71414 21.7089 1.60901C21.5137 1.50389 21.316 1.40365 21.1159 1.3083C20.9158 1.21296 20.7135 1.12261 20.5089 1.03727C20.3044 0.951923 20.0979 0.871687 19.8896 0.796558C19.6811 0.721428 19.471 0.651495 19.2592 0.586758C19.0473 0.522022 18.8341 0.46256 18.6194 0.408373C18.4046 0.354186 18.1887 0.305339 17.9716 0.261832C17.7545 0.218325 17.5365 0.18021 17.3175 0.147488C17.0986 0.114766 16.8789 0.0874749 16.6586 0.0656161C16.4383 0.0437572 16.2176 0.0273565 15.9965 0.016414C15.7755 0.0054714 15.5542 0 15.3329 0C15.1115 0 14.8903 0.0054714 14.6692 0.016414C14.4481 0.0273565 14.2274 0.0437572 14.0071 0.0656161C13.7868 0.0874749 13.5672 0.114766 13.3482 0.147488C13.1293 0.18021 12.9112 0.218325 12.6941 0.261832C12.477 0.305339 12.2611 0.354186 12.0464 0.408373C11.8317 0.46256 11.6184 0.522022 11.4065 0.586758C11.1947 0.651495 10.9846 0.721428 10.7762 0.796558C10.5678 0.871687 10.3613 0.951923 10.1568 1.03727C9.95228 1.12261 9.74998 1.21296 9.54987 1.3083C9.34976 1.40365 9.1521 1.50389 8.95688 1.60901C8.76166 1.71414 8.56912 1.82403 8.37925 1.93868C8.18938 2.05333 8.00242 2.1726 7.81837 2.2965C7.63432 2.4204 7.45339 2.54877 7.2756 2.68162C7.0978 2.81446 6.92335 2.95162 6.75223 3.0931C6.58111 3.23458 6.41355 3.3802 6.24953 3.52997C6.08552 3.67973 5.92525 3.83346 5.76873 3.99115C5.6122 4.14884 5.45962 4.31031 5.31096 4.47554C5.16231 4.64078 5.01776 4.8096 4.87733 4.98199C4.7369 5.15438 4.60075 5.33014 4.46889 5.50926C4.33703 5.68838 4.20961 5.87066 4.08662 6.05609C3.96364 6.24151 3.84526 6.42986 3.73146 6.62115C3.61765 6.81243 3.50858 7.00641 3.40423 7.20308C3.29988 7.39976 3.20039 7.5989 3.10575 7.8005C3.0111 8.0021 2.92143 8.20591 2.83671 8.41195C2.752 8.61798 2.67236 8.82599 2.59779 9.03596C2.52321 9.24593 2.4538 9.45762 2.38954 9.67103C2.32529 9.88444 2.26626 10.0993 2.21248 10.3156C2.15869 10.532 2.11021 10.7495 2.06702 10.9682C2.02384 11.1869 1.986 11.4066 1.95352 11.6272C1.92104 11.8478 1.89396 12.069 1.87226 12.291C1.85056 12.513 1.83428 12.7353 1.82342 12.958C1.81256 13.1807 1.80713 13.4036 1.80713 13.6266C1.80713 14.0656 1.82813 14.5035 1.87014 14.9405C1.91215 15.3774 1.97497 15.8112 2.0586 16.242C2.14222 16.6728 2.24627 17.0985 2.37074 17.5192C2.4952 17.9399 2.63951 18.3535 2.80365 18.7601C2.96779 19.1668 3.15101 19.5645 3.35331 19.9533C3.5556 20.3421 3.77603 20.7201 4.01459 21.0874C4.25314 21.4548 4.50872 21.8096 4.78133 22.152C5.05392 22.4945 5.34227 22.8229 5.64638 23.1372L4.54201 27.5877C4.33001 28.442 5.12213 29.2038 5.95938 28.9507L12.5443 26.9605C13.4638 27.1557 14.3933 27.2533 15.3329 27.2533Z" fill="url(#paint0_linear_66_362)"/>
<path d="M12.5149 13.6266C13.4487 13.6266 14.2057 12.864 14.2057 11.9233C14.2057 10.9826 13.4487 10.22 12.5149 10.22C11.5812 10.22 10.8242 10.9826 10.8242 11.9233C10.8242 12.864 11.5812 13.6266 12.5149 13.6266Z" fill="white"/>
<path d="M21.532 13.6266C22.4658 13.6266 23.2227 12.864 23.2227 11.9233C23.2227 10.9826 22.4658 10.22 21.532 10.22C20.5983 10.22 19.8413 10.9826 19.8413 11.9233C19.8413 12.864 20.5983 13.6266 21.532 13.6266Z" fill="white"/>
<path fill-rule="evenodd" clip-rule="evenodd" d="M12.0981 17.0333C12.1415 17.1569 12.1896 17.2786 12.2422 17.3985C12.2949 17.5184 12.3521 17.6361 12.4138 17.7515C12.4754 17.867 12.5414 17.9799 12.6117 18.0902C12.682 18.2005 12.7564 18.308 12.8349 18.4126C12.9134 18.5171 12.9958 18.6185 13.0821 18.7167C13.1683 18.8149 13.2582 18.9095 13.3517 19.0008C13.4452 19.092 13.542 19.1794 13.6422 19.2631C13.7423 19.3468 13.8455 19.4265 13.9518 19.5022C14.0581 19.5779 14.1671 19.6494 14.2788 19.7166C14.3905 19.7839 14.5046 19.8467 14.6211 19.9051C14.7376 19.9635 14.8562 20.0173 14.9769 20.0665C15.0975 20.1157 15.2198 20.1601 15.3438 20.1999C15.4679 20.2396 15.5932 20.2744 15.7199 20.3044C15.8466 20.3344 15.9742 20.3595 16.1028 20.3795C16.2314 20.3996 16.3606 20.4147 16.4904 20.4248C16.6201 20.4349 16.7501 20.4399 16.8802 20.4399C17.0104 20.4399 17.1403 20.4349 17.2701 20.4248C17.3998 20.4147 17.529 20.3996 17.6576 20.3795C17.7862 20.3595 17.9138 20.3344 18.0405 20.3044C18.1672 20.2744 18.2926 20.2396 18.4166 20.1999C18.5406 20.1601 18.6629 20.1157 18.7836 20.0665C18.9042 20.0173 19.0228 19.9635 19.1393 19.9051C19.2558 19.8467 19.3699 19.7839 19.4817 19.7166C19.5934 19.6494 19.7024 19.5779 19.8086 19.5022C19.9149 19.4265 20.0181 19.3468 20.1183 19.2631C20.2184 19.1794 20.3153 19.092 20.4087 19.0008C20.5022 18.9095 20.5921 18.8149 20.6784 18.7167C20.7646 18.6185 20.847 18.5171 20.9255 18.4126C21.004 18.308 21.0784 18.2005 21.1487 18.0902C21.219 17.9799 21.285 17.867 21.3467 17.7515C21.4083 17.6361 21.4655 17.5184 21.5182 17.3985C21.5709 17.2786 21.6189 17.1569 21.6623 17.0333H12.0981Z" fill="white"/>
<defs>
<linearGradient id="paint0_linear_66_362" x1="15.3329" y1="0" x2="15.3329" y2="29" gradientUnits="userSpaceOnUse">
<stop stop-color="#FFCC02"/>
<stop offset="1" stop-color="#FBAB00"/>
</linearGradient>
</defs>
</svg>
