<svg width="1170" height="44" viewBox="0 0 1170 44" fill="none" xmlns="http://www.w3.org/2000/svg">
<rect width="108" height="44" rx="5" fill="#0DCC5A"/>
<path d="M18.5 22H33.5" stroke="white" stroke-width="2" stroke-linecap="round" stroke-linejoin="round"/>
<path d="M18.5 17H33.5" stroke="white" stroke-width="2" stroke-linecap="round" stroke-linejoin="round"/>
<path d="M18.5 27H33.5" stroke="white" stroke-width="2" stroke-linecap="round" stroke-linejoin="round"/>
<path d="M50.8633 17.0059C50.8496 20.8477 49.9199 24.0469 45.2715 26.3711L44.3145 25.0586C46.3926 24.0264 47.6299 22.8711 48.334 21.4902L44.6562 21.832L44.4375 20.3418L48.8672 20.0684C48.9902 19.5488 49.0791 18.9883 49.127 18.4004H45.0938V17.0059H50.8633ZM54.1855 15.8164V20.5879H55.9492V22.0234H54.1855V28.2305H52.4355V15.8164H54.1855ZM61.08 17.1973V18.5645H58.0859V20.5469H60.5878V21.873H58.0859V24.1016C59.4189 24.0947 60.4032 24.0195 61.5585 23.8281L61.7089 25.2363C60.287 25.4961 59.0839 25.5098 57.2655 25.5098H56.4316V17.1973H61.08ZM66.8359 15.8164V28.2578H65.1542V15.8164H66.8359ZM64.1972 16.0352V27.6973H62.5702V21.75H61.1757V20.3555H62.5702V16.0352H64.1972ZM77.9823 16.8965V18.0723C77.9823 19.6309 77.9823 21.3809 77.4764 24.0195L75.7264 23.8418C76.1981 21.4902 76.2186 19.7402 76.2323 18.2773H68.9041V16.8965H77.9823ZM79.076 25.3184V26.7402H67.7284V25.3184H71.7889V21.0391H73.5252V25.3184H79.076ZM89.8396 15.8164V28.2852H88.1033V15.8164H89.8396ZM85.9841 16.8555V21.6543H81.8826V23.9375C83.7761 23.9307 85.3894 23.8213 87.2146 23.5273L87.365 24.9355C85.3142 25.291 83.4685 25.373 81.199 25.373H80.0779V20.2734H84.2068V18.2637H80.0642V16.8555H85.9841Z" fill="white"/>
<path d="M190.109 14.8281V28.8594H188.625V14.8281H190.109ZM182.625 15.875C184.703 15.875 186.234 17.7812 186.234 20.7812C186.234 23.7969 184.703 25.7031 182.625 25.7031C180.516 25.7031 179 23.7969 179 20.7812C179 17.7812 180.516 15.875 182.625 15.875ZM182.625 17.2031C181.328 17.2031 180.438 18.5781 180.438 20.7812C180.438 23 181.328 24.375 182.625 24.375C183.906 24.375 184.797 23 184.797 20.7812C184.797 18.5781 183.906 17.2031 182.625 17.2031ZM203.801 14.8281V25.4531H202.395V14.8281H203.801ZM201.067 15.0781V25.0156H199.661V20.0312H197.942V22.8594H192.458V15.9375H193.864V18.2344H196.567V15.9375H197.942V18.8281H199.661V15.0781H201.067ZM193.864 21.6562H196.567V19.375H193.864V21.6562ZM204.208 27.3281V28.5312H194.52V24.0156H195.989V27.3281H204.208ZM216.571 22.2812V23.4688H206.821V15.9844H216.431V17.1875H208.321V19.0781H216.134V20.25H208.321V22.2812H216.571ZM218.024 25.8438V27.0625H205.212V25.8438H218.024Z" fill="#212121"/>
<path d="M291.109 14.8281V22.0312H289.641V14.8281H291.109ZM291.125 22.7031V26.2031H283.406V27.5H291.594V28.6875H281.969V25.0781H289.656V23.875H281.922V22.7031H291.125ZM284.609 16.2812C284.594 18.1562 285.953 19.8594 288.094 20.5312L287.359 21.6875C285.727 21.1562 284.5 20.0469 283.875 18.625C283.234 20.1562 281.984 21.375 280.312 21.9531L279.562 20.7812C281.75 20.0469 283.094 18.2188 283.094 16.2812V15.2031H284.609V16.2812ZM298.004 18.3906C297.989 20.9531 299.536 23.5156 301.708 24.4844L300.817 25.6562C299.208 24.8906 297.934 23.3203 297.286 21.4062C296.629 23.4531 295.34 25.1484 293.661 25.9688L292.754 24.7188C294.958 23.7344 296.504 21.0625 296.504 18.3906V16H298.004V18.3906ZM304.458 14.8281V28.8594H302.973V14.8281H304.458ZM317.212 14.8281V18.9688H319.243V20.2031H317.212V25H315.712V14.8281H317.212ZM313.415 15.8906C313.415 19.5625 310.915 22.2344 306.821 23.4688L306.196 22.2812C309.47 21.2969 311.509 19.4375 311.806 17.125H306.79V15.8906H313.415ZM317.79 27.3281V28.5312H308.321V23.9531H309.821V27.3281H317.79ZM326.861 15.4688C328.705 15.4531 330.127 16.5234 330.439 18.0938H333.174V14.8281H334.658V22.3438H333.174V19.3125H330.455C330.15 20.9219 328.721 22 326.861 22C324.721 22 323.189 20.6562 323.189 18.7188C323.189 16.8125 324.721 15.4531 326.861 15.4688ZM326.861 16.7031C325.533 16.7031 324.611 17.5156 324.611 18.7188C324.611 19.9219 325.533 20.75 326.861 20.75C328.158 20.75 329.08 19.9219 329.08 18.7188C329.08 17.5156 328.158 16.7031 326.861 16.7031ZM327.002 23.0156V24.6406H333.174V23.0156H334.658V28.6562H325.533V23.0156H327.002ZM327.002 27.4375H333.174V25.8125H327.002V27.4375ZM349.147 25.9062V27.1562H336.334V25.9062H341.975V23.4531H337.897V19H346.116V17.0312H337.866V15.8125H347.584V20.1875H339.366V22.2344H347.912V23.4531H343.444V25.9062H349.147ZM361.026 21.4688V22.6875H351.276V16.0781H360.901V17.2969H352.745V21.4688H361.026ZM362.495 25.75V26.9844H349.683V25.75H362.495Z" fill="#212121"/>
<path d="M436.281 23.2656V24.4844H430.625V28.8438H429.156V24.4844H423.516V23.2656H436.281ZM435.062 16.5156V17.7188H430.641C430.727 19.2656 432.836 20.7734 435.5 21.1094L434.969 22.2969C432.719 21.9844 430.805 20.9297 429.906 19.5C428.992 20.9453 427.062 21.9844 424.812 22.2969L424.266 21.1094C426.93 20.7734 429.055 19.2969 429.156 17.7188H424.719V16.5156H429.156V14.8281H430.625V16.5156H435.062ZM441.77 18.1562C441.77 19.9219 443.083 21.5469 445.239 22.2188L444.52 23.3906C442.911 22.8828 441.692 21.8203 441.067 20.4531C440.442 21.9219 439.231 23.0625 437.583 23.6094L436.864 22.4531C439.004 21.7656 440.301 20.0469 440.301 18.1562V17.8281H437.254V16.625H440.301V14.9219H441.786V16.625H444.817V17.8281H441.77V18.1562ZM448.536 14.8438V25.2656H447.051V20.2812H444.333V19.0781H447.051V14.8438H448.536ZM448.911 27.3281V28.5312H439.442V24.3438H440.926V27.3281H448.911ZM455.04 17.0625C455.04 18.9062 456.321 20.6094 458.415 21.2969L457.618 22.4688C456.087 21.9297 454.938 20.8359 454.337 19.4531C453.72 21.0234 452.532 22.25 450.899 22.8594L450.103 21.6719C452.29 20.8906 453.556 19.0312 453.571 16.9375V15.5625H455.04V17.0625ZM461.212 14.8281V18.3438H463.243V19.5938H461.212V23.2812H459.728V14.8281H461.212ZM456.696 23.6094C459.571 23.6094 461.337 24.5625 461.337 26.2031C461.337 27.8594 459.571 28.8125 456.696 28.7969C453.79 28.8125 451.993 27.8594 451.993 26.2031C451.993 24.5625 453.79 23.6094 456.696 23.6094ZM456.696 24.7812C454.665 24.7812 453.462 25.3125 453.478 26.2031C453.462 27.125 454.665 27.625 456.696 27.6406C458.712 27.625 459.884 27.125 459.884 26.2031C459.884 25.3125 458.712 24.7812 456.696 24.7812ZM476.326 21.5312V22.7188H470.669V24.2188H474.763V28.6562H465.091V24.2188H469.201V22.7188H463.56V21.5312H476.326ZM475.123 15.2656V16.4688H473.091V19.1406H475.06V20.3438H464.794V19.1406H466.779V16.4688H464.732V15.2656H475.123ZM466.56 25.3906V27.4531H473.326V25.3906H466.56ZM468.248 19.1406H471.607V16.4688H468.248V19.1406Z" fill="#212121"/>
<path d="M540.953 17.3438C540.953 18.4062 541.25 19.9219 542.281 20.9531C543.297 19.9453 543.578 18.4531 543.578 17.3438V16.9688H542.609V15.7656H546.609V16.9688H545V17.3438C544.984 18.7812 545.594 20.5625 547.203 21.375L546.422 22.4531C545.336 21.8828 544.672 20.9062 544.297 19.8125C543.977 20.9297 543.367 21.9766 542.281 22.5938C541.203 21.9766 540.594 20.9297 540.266 19.8281C539.891 20.9141 539.227 21.8984 538.156 22.4531L537.359 21.375C538.953 20.5312 539.578 18.75 539.578 17.3438V16.9688H537.875V15.7656H541.953V16.9688H540.953V17.3438ZM549.328 14.8125V23.0156H547.844V14.8125H549.328ZM549.328 23.7344V28.6562H539.859V23.7344H549.328ZM541.328 24.9062V27.4531H547.875V24.9062H541.328ZM561.864 14.8438V19.3438H563.895V20.5781H561.864V25.3125H560.379V14.8438H561.864ZM559.223 16.4688V17.6719H550.879V16.4688H554.317V14.8281H555.801V16.4688H559.223ZM555.051 18.3438C557.067 18.3438 558.442 19.3906 558.442 20.9844C558.442 22.5781 557.067 23.6094 555.051 23.6094C553.02 23.6094 551.645 22.5781 551.645 20.9844C551.645 19.3906 553.02 18.3438 555.051 18.3438ZM555.051 19.4844C553.864 19.4844 553.067 20.0625 553.083 20.9844C553.067 21.8906 553.864 22.4531 555.051 22.4531C556.239 22.4531 557.036 21.8906 557.051 20.9844C557.036 20.0625 556.239 19.4844 555.051 19.4844ZM562.458 27.3281V28.5312H552.989V24.4844H554.473V27.3281H562.458ZM572.466 17.0625C572.466 18.9062 573.747 20.6094 575.841 21.2969L575.044 22.4688C573.513 21.9297 572.365 20.8359 571.763 19.4531C571.146 21.0234 569.958 22.25 568.326 22.8594L567.529 21.6719C569.716 20.8906 570.982 19.0312 570.997 16.9375V15.5625H572.466V17.0625ZM578.638 14.8281V18.3438H580.669V19.5938H578.638V23.2812H577.154V14.8281H578.638ZM574.122 23.6094C576.997 23.6094 578.763 24.5625 578.763 26.2031C578.763 27.8594 576.997 28.8125 574.122 28.7969C571.216 28.8125 569.419 27.8594 569.419 26.2031C569.419 24.5625 571.216 23.6094 574.122 23.6094ZM574.122 24.7812C572.091 24.7812 570.888 25.3125 570.904 26.2031C570.888 27.125 572.091 27.625 574.122 27.6406C576.138 27.625 577.31 27.125 577.31 26.2031C577.31 25.3125 576.138 24.7812 574.122 24.7812ZM593.752 21.5312V22.7188H588.096V24.2188H592.189V28.6562H582.518V24.2188H586.627V22.7188H580.986V21.5312H593.752ZM592.549 15.2656V16.4688H590.518V19.1406H592.486V20.3438H582.221V19.1406H584.205V16.4688H582.158V15.2656H592.549ZM583.986 25.3906V27.4531H590.752V25.3906H583.986ZM585.674 19.1406H589.033V16.4688H585.674V19.1406Z" fill="#212121"/>
<path d="M660.656 18.3906C660.641 20.9531 662.188 23.5156 664.359 24.4844L663.469 25.6562C661.859 24.8906 660.586 23.3203 659.938 21.4062C659.281 23.4531 657.992 25.1484 656.312 25.9688L655.406 24.7188C657.609 23.7344 659.156 21.0625 659.156 18.3906V16H660.656V18.3906ZM667.109 14.8281V28.8594H665.625V14.8281H667.109ZM673.129 18.6562C673.129 20.8906 674.067 23.2812 675.942 24.4219L675.114 25.5625C673.801 24.7734 672.911 23.375 672.442 21.75C671.918 23.5312 670.958 25.0469 669.598 25.875L668.676 24.7656C670.661 23.5781 671.692 21.1094 671.692 18.7188V16.1094H673.129V18.6562ZM680.911 14.8281V28.8281H679.489V14.8281H680.911ZM678.004 15.0938V28.1406H676.598V20.9844H674.426V19.75H676.598V15.0938H678.004ZM693.228 14.8438V19H695.228V20.2188H693.228V24.2656H691.743V14.8438H693.228ZM682.118 22.7031C683.204 22.7031 684.462 22.7031 685.774 22.6562V21.7188C684.181 21.5547 683.165 20.8047 683.181 19.6719C683.165 18.3906 684.493 17.5938 686.509 17.6094C688.509 17.5938 689.837 18.3906 689.837 19.6719C689.837 20.7969 688.837 21.5469 687.259 21.7188V22.6094C688.509 22.5469 689.774 22.4453 690.946 22.2812L691.071 23.3438C688.056 23.875 684.743 23.8906 682.274 23.8906L682.118 22.7031ZM693.228 24.9219V28.8281H691.743V26.0781H683.868V24.9219H693.228ZM690.556 16.0312V17.1406H682.478V16.0312H685.774V14.7188H687.259V16.0312H690.556ZM686.509 18.625C685.306 18.6094 684.587 19 684.587 19.6719C684.587 20.3281 685.306 20.75 686.509 20.75C687.696 20.75 688.415 20.3281 688.415 19.6719C688.415 19 687.696 18.6094 686.509 18.625ZM707.169 14.8438V25.0156H705.685V14.8438H707.169ZM707.591 27.3281V28.5312H698.013V23.9844H699.513V27.3281H707.591ZM699.576 15.7812C701.685 15.7812 703.294 17.2188 703.294 19.25C703.294 21.3125 701.685 22.7344 699.576 22.7344C697.466 22.7344 695.841 21.3125 695.841 19.25C695.841 17.2188 697.466 15.7812 699.576 15.7812ZM699.576 17.0781C698.263 17.0781 697.294 17.9688 697.294 19.25C697.294 20.5625 698.263 21.4375 699.576 21.4375C700.857 21.4375 701.841 20.5625 701.841 19.25C701.841 17.9688 700.857 17.0781 699.576 17.0781Z" fill="#212121"/>
<path d="M774.375 18.3906C774.359 20.875 775.797 23.4062 777.891 24.4219L776.969 25.6094C775.445 24.8203 774.266 23.25 773.656 21.375C773.023 23.375 771.797 25.0469 770.203 25.875L769.281 24.6719C771.438 23.6406 772.891 20.9531 772.891 18.3906V16H774.375V18.3906ZM780.422 14.8281V20.4062H782.672V21.6719H780.422V28.8281H778.938V14.8281H780.422ZM794.504 14.8281V28.8281H793.004V14.8281H794.504ZM790.333 16.3281C790.333 20.4219 788.583 23.9844 783.786 26.2812L783.004 25.0781C786.731 23.3047 788.543 20.7812 788.833 17.5156H783.676V16.3281H790.333ZM809.024 25.8594V27.0781H796.212V25.8594H801.868V22.5469H803.353V25.8594H809.024ZM803.368 17.375C803.368 19.5156 805.79 21.4219 808.462 21.8438L807.868 23.0156C805.61 22.5859 803.524 21.2734 802.618 19.4375C801.704 21.2969 799.634 22.6484 797.415 23.0781L796.806 21.9062C799.415 21.4688 801.821 19.5156 801.821 17.375V17.25H797.274V16.0312H807.915V17.25H803.368V17.375ZM821.138 14.8281V28.8281H819.654V14.8281H821.138ZM809.638 25.0156C810.787 25.0078 812.107 25 813.482 24.9531V23.5625C811.841 23.3516 810.779 22.3906 810.794 21.0156C810.779 19.4375 812.154 18.3906 814.185 18.3906C816.232 18.3906 817.638 19.4375 817.638 21.0156C817.638 22.375 816.576 23.3281 814.951 23.5469V24.9062C816.248 24.8516 817.56 24.75 818.794 24.5938L818.904 25.7031C815.794 26.2188 812.404 26.25 809.841 26.25L809.638 25.0156ZM818.482 16.5V17.6875H809.935V16.5H813.482V14.8594H814.966V16.5H818.482ZM814.185 19.5469C813.013 19.5469 812.185 20.125 812.201 21.0156C812.185 21.9062 813.013 22.4531 814.185 22.4531C815.388 22.4531 816.216 21.9062 816.216 21.0156C816.216 20.125 815.388 19.5469 814.185 19.5469Z" fill="#212121"/>
</svg>
