<svg width="460" height="40" viewBox="0 0 460 40" fill="none" xmlns="http://www.w3.org/2000/svg">
<g clip-path="url(#clip0_66_334)">
<rect width="460" height="40" fill="#F0F0F0"/>
<path d="M24 27C28.4183 27 32 23.4183 32 19C32 14.5817 28.4183 11 24 11C19.5817 11 16 14.5817 16 19C16 23.4183 19.5817 27 24 27Z" stroke="#212121" stroke-width="2" stroke-linecap="round" stroke-linejoin="round"/>
<path d="M33.9999 29L29.6499 24.65" stroke="#212121" stroke-width="2" stroke-linecap="round" stroke-linejoin="round"/>
<path d="M52.3125 14.375C54.2109 14.375 55.6016 15.9844 55.8281 18.5781H58.7188V13.3281H60.1875V27.3594H58.7188V19.7812H55.8438C55.6797 22.5078 54.2578 24.2031 52.3125 24.2031C50.2188 24.2031 48.75 22.2969 48.7656 19.2812C48.75 16.2812 50.2188 14.375 52.3125 14.375ZM52.3125 15.7031C51.0469 15.7031 50.1719 17.0781 50.1719 19.2812C50.1719 21.5 51.0469 22.875 52.3125 22.875C53.5781 22.875 54.4531 21.5 54.4531 19.2812C54.4531 17.0781 53.5781 15.7031 52.3125 15.7031ZM74.0356 25.8281V27.0312H64.1606V22.6406H65.645V25.8281H74.0356ZM73.6606 13.3438V23.5H72.2075V18.3438H69.8325V17.1406H72.2075V13.3438H73.6606ZM65.7856 14.4531V15.6562H63.645V20.125C64.3481 20.1016 65.0981 20.0312 65.9263 19.8438L66.0513 21.0625C64.8169 21.3281 63.8325 21.3281 62.8325 21.3281H62.2075V14.4531H65.7856ZM70.4419 14.4531V15.6562H68.0044V20.125C69.145 20.1172 69.9653 20.0469 70.895 19.8281L71.0513 21.0312C69.8481 21.2969 68.8794 21.3281 67.2544 21.3281H66.5356V14.4531H70.4419ZM83.4662 15.5625C83.4662 17.4062 84.7475 19.1094 86.8412 19.7969L86.0444 20.9688C84.5131 20.4297 83.3647 19.3359 82.7631 17.9531C82.1459 19.5234 80.9584 20.75 79.3256 21.3594L78.5287 20.1719C80.7162 19.3906 81.9819 17.5312 81.9975 15.4375V14.0625H83.4662V15.5625ZM89.6381 13.3281V16.8438H91.6694V18.0938H89.6381V21.7812H88.1537V13.3281H89.6381ZM85.1225 22.1094C87.9975 22.1094 89.7631 23.0625 89.7631 24.7031C89.7631 26.3594 87.9975 27.3125 85.1225 27.2969C82.2162 27.3125 80.4194 26.3594 80.4194 24.7031C80.4194 23.0625 82.2162 22.1094 85.1225 22.1094ZM85.1225 23.2812C83.0912 23.2812 81.8881 23.8125 81.9037 24.7031C81.8881 25.625 83.0912 26.125 85.1225 26.1406C87.1381 26.125 88.31 25.625 88.31 24.7031C88.31 23.8125 87.1381 23.2812 85.1225 23.2812ZM104.752 20.0312V21.2188H99.0956V22.7188H103.189V27.1562H93.5175V22.7188H97.6269V21.2188H91.9863V20.0312H104.752ZM103.549 13.7656V14.9688H101.518V17.6406H103.486V18.8438H93.2206V17.6406H95.205V14.9688H93.1581V13.7656H103.549ZM94.9863 23.8906V25.9531H101.752V23.8906H94.9863ZM96.6738 17.6406H100.033V14.9688H96.6738V17.6406ZM111.709 13.5625C114.866 13.5625 116.709 14.4062 116.709 15.9688C116.709 17.5312 114.866 18.3906 111.709 18.3906C108.553 18.3906 106.709 17.5312 106.709 15.9688C106.709 14.4062 108.553 13.5625 111.709 13.5625ZM111.709 14.6562C109.475 14.6562 108.241 15.1406 108.256 15.9688C108.241 16.8281 109.475 17.2812 111.709 17.2812C113.944 17.2812 115.178 16.8281 115.178 15.9688C115.178 15.1406 113.944 14.6562 111.709 14.6562ZM118.1 19.25V20.4375H105.334V19.25H118.1ZM116.491 21.5156V24.7969H108.334V26.0469H116.881V27.1875H106.881V23.7188H115.022V22.625H106.866V21.5156H116.491ZM127.015 16.2188C127.015 17.8125 128.281 19.3125 130.421 19.9062L129.749 21.0469C128.117 20.5938 126.921 19.6094 126.296 18.3438C125.679 19.7266 124.452 20.8047 122.796 21.3125L122.077 20.1406C124.218 19.5312 125.546 17.9688 125.546 16.2188V16.0625H122.499V14.875H125.546V13.2656H127.031V14.875H130.062V16.0625H127.015V16.2188ZM133.109 13.3281V16.6875H135.14V17.9219H133.109V21.4062H131.624V13.3281H133.109ZM133.327 22.1094V23.2969H129.499C129.765 24.6016 131.562 25.7969 133.906 26.1406L133.359 27.2812C131.234 26.9531 129.484 25.9766 128.671 24.6406C127.867 25.9688 126.132 26.9297 124.015 27.2656L123.468 26.125C125.82 25.7969 127.593 24.6406 127.874 23.2969H124.031V22.1094H133.327ZM141.832 14.1719C144.769 14.1719 147.004 15.7188 147.004 18.0781C147.004 20.4375 144.769 22 141.832 21.9844C138.894 22 136.676 20.4375 136.676 18.0781C136.676 15.7188 138.894 14.1719 141.832 14.1719ZM141.832 15.375C139.691 15.3594 138.082 16.4531 138.098 18.0781C138.082 19.7188 139.691 20.7656 141.832 20.7656C143.973 20.7656 145.566 19.7188 145.566 18.0781C145.566 16.4531 143.973 15.3594 141.832 15.375ZM148.269 24.2812V25.5156H135.457V24.2812H148.269ZM153.946 16.8906C153.93 19.4531 155.477 22.0156 157.649 22.9844L156.758 24.1562C155.149 23.3906 153.875 21.8203 153.227 19.9062C152.571 21.9531 151.282 23.6484 149.602 24.4688L148.696 23.2188C150.899 22.2344 152.446 19.5625 152.446 16.8906V14.5H153.946V16.8906ZM160.399 13.3281V27.3594H158.914V13.3281H160.399ZM175.231 18.8281V20.0469H173.059V27.3125H171.575V13.3281H173.059V18.8281H175.231ZM164.153 14.6875V22.5625C166.106 22.5625 168.145 22.3984 170.372 21.9375L170.544 23.1875C168.153 23.6719 165.934 23.7969 163.841 23.7969H162.684V14.6875H164.153ZM188.314 24.3438V25.5781H175.501V24.3438H178.564V20.6875C177.415 20.0547 176.72 19.0469 176.72 17.7969C176.72 15.5938 178.876 14.1406 181.876 14.1406C184.892 14.1406 187.048 15.5938 187.048 17.7969C187.048 19.0312 186.376 20.0234 185.251 20.6562V24.3438H188.314ZM181.876 15.3281C179.673 15.3281 178.158 16.2812 178.158 17.7969C178.158 19.2969 179.673 20.2812 181.876 20.2812C184.064 20.2812 185.611 19.2969 185.611 17.7969C185.611 16.2812 184.064 15.3281 181.876 15.3281ZM180.033 24.3438H183.751V21.2188C183.181 21.3672 182.548 21.4375 181.876 21.4375C181.22 21.4375 180.595 21.3672 180.033 21.2344V24.3438ZM191.146 22.6406C191.162 20.5938 191.771 19.9688 192.803 19.3281C193.459 18.9219 193.959 18.3594 193.959 17.5312C193.959 16.5469 193.209 15.9375 192.271 15.9375C191.428 15.9375 190.615 16.4531 190.537 17.6094H188.849C188.912 15.625 190.412 14.5312 192.271 14.5312C194.303 14.5312 195.662 15.75 195.662 17.5312C195.662 18.7812 195.068 19.625 194.068 20.2344C193.131 20.7969 192.771 21.375 192.74 22.6406V22.7344H191.146V22.6406ZM192.006 26.1094C191.396 26.1094 190.881 25.6094 190.896 25C190.881 24.3906 191.396 23.8906 192.006 23.8906C192.599 23.8906 193.115 24.3906 193.115 25C193.115 25.6094 192.599 26.1094 192.006 26.1094ZM207.061 14.75C207.046 18.875 205.78 22.5469 200.671 25.0625L199.858 23.9531C202.389 22.7109 203.897 21.2031 204.733 19.4219L200.155 19.8594L199.936 18.5781L205.186 18.2188C205.397 17.5078 205.522 16.75 205.577 15.9531H200.671V14.75H207.061ZM210.686 13.3281V18.9219H212.858V20.1406H210.686V27.3125H209.202V13.3281H210.686ZM225.238 13.3281V27.3281H223.816V13.3281H225.238ZM222.472 13.6406V26.6094H221.066V19.9062H219.316V18.5781H221.066V13.6406H222.472ZM219.691 15.0469V16.2656H218.613V22.5156C219.089 22.4844 219.55 22.4297 219.972 22.375L220.081 23.4531C217.863 23.8906 214.956 23.9531 213.144 23.9531L212.972 22.7031L214.347 22.6875V16.2656H213.269V15.0469H219.691ZM215.691 22.6719C216.198 22.6562 216.722 22.6406 217.238 22.6094V16.2656H215.691V22.6719ZM231.304 15.5625C231.304 17.4062 232.586 19.1094 234.679 19.7969L233.883 20.9688C232.351 20.4297 231.203 19.3359 230.601 17.9531C229.984 19.5234 228.797 20.75 227.164 21.3594L226.367 20.1719C228.554 19.3906 229.82 17.5312 229.836 15.4375V14.0625H231.304V15.5625ZM237.476 13.3281V16.8438H239.508V18.0938H237.476V21.7812H235.992V13.3281H237.476ZM232.961 22.1094C235.836 22.1094 237.601 23.0625 237.601 24.7031C237.601 26.3594 235.836 27.3125 232.961 27.2969C230.054 27.3125 228.258 26.3594 228.258 24.7031C228.258 23.0625 230.054 22.1094 232.961 22.1094ZM232.961 23.2812C230.929 23.2812 229.726 23.8125 229.742 24.7031C229.726 25.625 230.929 26.125 232.961 26.1406C234.976 26.125 236.148 25.625 236.148 24.7031C236.148 23.8125 234.976 23.2812 232.961 23.2812ZM252.59 20.0312V21.2188H246.934V22.7188H251.027V27.1562H241.356V22.7188H245.465V21.2188H239.824V20.0312H252.59ZM251.387 13.7656V14.9688H249.356V17.6406H251.324V18.8438H241.059V17.6406H243.043V14.9688H240.996V13.7656H251.387ZM242.824 23.8906V25.9531H249.59V23.8906H242.824ZM244.512 17.6406H247.871V14.9688H244.512V17.6406ZM255.688 24.9219L254.438 29.2344H253.11L253.938 24.9219H255.688ZM263.541 14.1094C265.416 14.0938 266.759 15.4062 266.759 17.2969C266.759 19.1719 265.416 20.4844 263.541 20.4844C261.666 20.4844 260.322 19.1719 260.337 17.2969C260.322 15.4062 261.666 14.0938 263.541 14.1094ZM263.541 15.3125C262.447 15.3125 261.666 16.0938 261.666 17.2969C261.666 18.4688 262.447 19.2656 263.541 19.2656C264.619 19.2656 265.4 18.4688 265.416 17.2969C265.4 16.0938 264.619 15.3125 263.541 15.3125ZM272.15 13.3438V20.9531H270.744V17.6875H269.103V20.8594H267.728V13.5938H269.103V16.4531H270.744V13.3438H272.15ZM264.275 21.5625V23.0938H270.697V21.5625H272.15V27.1562H262.806V21.5625H264.275ZM264.275 25.9531H270.697V24.2969H264.275V25.9531ZM278.389 15.5625C278.389 17.4062 279.67 19.1094 281.764 19.7969L280.967 20.9688C279.436 20.4297 278.287 19.3359 277.686 17.9531C277.068 19.5234 275.881 20.75 274.248 21.3594L273.451 20.1719C275.639 19.3906 276.904 17.5312 276.92 15.4375V14.0625H278.389V15.5625ZM284.561 13.3281V16.8438H286.592V18.0938H284.561V21.7812H283.076V13.3281H284.561ZM280.045 22.1094C282.92 22.1094 284.686 23.0625 284.686 24.7031C284.686 26.3594 282.92 27.3125 280.045 27.2969C277.139 27.3125 275.342 26.3594 275.342 24.7031C275.342 23.0625 277.139 22.1094 280.045 22.1094ZM280.045 23.2812C278.014 23.2812 276.811 23.8125 276.826 24.7031C276.811 25.625 278.014 26.125 280.045 26.1406C282.061 26.125 283.232 25.625 283.232 24.7031C283.232 23.8125 282.061 23.2812 280.045 23.2812ZM299.674 20.0312V21.2188H294.018V22.7188H298.112V27.1562H288.44V22.7188H292.549V21.2188H286.909V20.0312H299.674ZM298.471 13.7656V14.9688H296.44V17.6406H298.409V18.8438H288.143V17.6406H290.128V14.9688H288.081V13.7656H298.471ZM289.909 23.8906V25.9531H296.674V23.8906H289.909ZM291.596 17.6406H294.956V14.9688H291.596V17.6406ZM316.496 24.3438V25.5781H303.683V24.3438H309.324V21.1094H305.152V14.4531H314.964V21.1094H310.792V24.3438H316.496ZM306.589 15.6406V19.9375H313.511V15.6406H306.589ZM328.25 18.4844V19.6562H318.75V14.125H328.078V15.3281H320.25V18.4844H328.25ZM329.828 21.3594V22.5625H324.109V27.2969H322.656V22.5625H317.016V21.3594H329.828ZM341.04 14.2031C341.04 17.7656 338.603 20.2969 334.54 21.4375L333.931 20.2812C337.157 19.375 339.165 17.625 339.462 15.4219H334.665V14.2031H341.04ZM345.478 13.3438V21.2656H343.993V18.0781H341.103V16.8438H343.993V13.3438H345.478ZM345.478 21.8438V27.1406H336.321V21.8438H345.478ZM337.774 23.0312V25.9531H344.009V23.0312H337.774ZM351.435 15.9688C351.435 17.5469 352.404 19.125 354.216 19.8281L353.419 20.9688C352.138 20.4531 351.232 19.4844 350.732 18.3125C350.208 19.6172 349.255 20.7422 347.904 21.3281L347.091 20.1875C348.982 19.3594 349.997 17.5469 349.997 15.9688V14.1719H351.435V15.9688ZM359.091 13.3438V21.7969H357.685V18.1406H356.044V21.7188H354.669V13.5781H356.044V16.9062H357.685V13.3438H359.091ZM359.091 22.5312V27.3281H357.622V23.7344H349.576V22.5312H359.091Z" fill="#D1D1D1"/>
</g>
<defs>
<clipPath id="clip0_66_334">
<rect width="460" height="40" fill="white"/>
</clipPath>
</defs>
</svg>
