<svg width="332" height="351" viewBox="0 0 332 351" fill="none" xmlns="http://www.w3.org/2000/svg">
<rect x="0.512695" y="0.842529" width="331.487" height="350" rx="20" fill="#F7F8F9"/>
<g clip-path="url(#clip0_156_870)">
<path d="M27.0439 34.53V45.8425H24.9971V36.5144H24.9346L22.2939 38.2019V36.3425L25.0908 34.53H27.0439Z" fill="#292929"/>
<path d="M22.4502 75.8425V74.3738L26.4502 70.5144C27.5908 69.3738 28.1846 68.7019 28.1846 67.7488C28.1846 66.7019 27.3564 66.03 26.2471 66.03C25.0752 66.03 24.3252 66.7644 24.3408 67.905H22.4033C22.3877 65.7644 23.9971 64.3738 26.2627 64.3738C28.5752 64.3738 30.1377 65.7488 30.1377 67.655C30.1377 68.9363 29.5127 69.9675 27.2939 72.0613L25.2783 74.0613V74.1394H30.3096V75.8425H22.4502Z" fill="#999999"/>
<path d="M26.5596 105.999C24.1377 105.999 22.4189 104.686 22.3721 102.78H24.4189C24.4814 103.686 25.3877 104.28 26.5596 104.28C27.8096 104.28 28.7002 103.593 28.7002 102.593C28.7002 101.577 27.8252 100.843 26.3564 100.843H25.3408V99.28H26.3564C27.5596 99.28 28.4033 98.6082 28.3877 97.6238C28.4033 96.6707 27.6846 96.03 26.5752 96.03C25.5127 96.03 24.5908 96.6238 24.5596 97.5769H22.6064C22.6533 95.6707 24.3721 94.3738 26.5908 94.3738C28.8877 94.3738 30.3721 95.78 30.3564 97.5144C30.3721 98.78 29.5283 99.7019 28.2939 99.9519V100.046C29.8877 100.264 30.7939 101.28 30.7783 102.702C30.7939 104.608 29.0127 105.999 26.5596 105.999Z" fill="#999999"/>
<path d="M22.2471 133.733V132.108L27.1377 124.53H29.6689V132.061H31.1533V133.733H29.6689V135.843H27.7314V133.733H22.2471ZM24.3252 132.061H27.7627V126.843H27.6377L24.3252 131.983V132.061Z" fill="#999999"/>
<path d="M26.4658 165.999C24.2002 165.999 22.5439 164.655 22.4814 162.78H24.4658C24.5283 163.702 25.3877 164.358 26.4658 164.358C27.7314 164.358 28.6377 163.436 28.6377 162.186C28.6377 160.889 27.7002 159.968 26.4033 159.968C25.5283 159.952 24.8877 160.264 24.5283 160.936H22.6377L23.3252 154.53H30.0127V156.233H24.9971L24.6533 159.233H24.7627C25.2002 158.733 26.0283 158.374 26.9502 158.374C29.0596 158.374 30.6064 159.952 30.6064 162.124C30.6064 164.389 28.9033 165.999 26.4658 165.999Z" fill="#999999"/>
<path d="M26.6846 195.999C24.4814 195.983 22.2627 194.671 22.2783 190.499C22.2783 186.624 24.0439 184.374 26.8096 184.374C28.9971 184.374 30.4971 185.749 30.7471 187.577H28.7314C28.5283 186.718 27.8408 186.139 26.8096 186.139C25.1689 186.139 24.2471 187.593 24.2471 189.968H24.3564C24.9346 188.999 26.0283 188.421 27.2627 188.421C29.2939 188.421 30.8564 189.952 30.8564 192.093C30.8564 194.343 29.1846 196.014 26.6846 195.999ZM26.6846 194.358C27.9502 194.358 28.8877 193.374 28.8877 192.139C28.8877 190.936 27.9658 189.968 26.7158 189.968C25.4502 189.968 24.4814 190.968 24.4658 192.155C24.4814 193.343 25.4033 194.358 26.6846 194.358Z" fill="#999999"/>
<path d="M22.8721 225.843L27.7783 216.311V216.233H22.0908V214.53H29.8877V216.264L24.9814 225.843H22.8721Z" fill="#999999"/>
<path d="M26.5596 255.999C24.0439 255.999 22.2627 254.655 22.2627 252.811C22.2627 251.374 23.3252 250.202 24.6846 249.983V249.921C23.4971 249.671 22.6846 248.639 22.6846 247.405C22.6846 245.655 24.3252 244.374 26.5596 244.374C28.7783 244.374 30.4189 245.655 30.4189 247.405C30.4189 248.639 29.5908 249.671 28.4189 249.921V249.983C29.7783 250.202 30.8564 251.374 30.8564 252.811C30.8564 254.655 29.0596 255.999 26.5596 255.999ZM26.5596 254.389C27.8877 254.389 28.7627 253.671 28.7627 252.624C28.7627 251.561 27.8252 250.78 26.5596 250.78C25.2783 250.78 24.3408 251.561 24.3564 252.624C24.3408 253.671 25.2158 254.389 26.5596 254.389ZM26.5596 249.264C27.6533 249.264 28.4346 248.577 28.4346 247.593C28.4346 246.639 27.6689 245.968 26.5596 245.968C25.4346 245.968 24.6689 246.624 24.6689 247.593C24.6689 248.577 25.4502 249.264 26.5596 249.264Z" fill="#999999"/>
<path d="M26.4658 274.374C28.6846 274.389 30.8721 275.702 30.8877 279.843C30.8877 283.749 29.1221 285.999 26.3408 285.999C24.1533 285.999 22.6533 284.639 22.4033 282.764H24.4189C24.6221 283.655 25.3096 284.233 26.3408 284.233C27.9814 284.233 28.9033 282.78 28.9189 280.358H28.7939C28.2158 281.343 27.1377 281.921 25.8877 281.921C23.8721 281.921 22.3096 280.389 22.2939 278.249C22.2939 276.03 23.9502 274.358 26.4658 274.374ZM26.4814 276.014C25.2158 276.014 24.2627 276.999 24.2783 278.202C24.2783 279.421 25.1846 280.374 26.4502 280.374C27.7002 280.374 28.6846 279.358 28.6689 278.186C28.6689 277.03 27.7471 276.014 26.4814 276.014Z" fill="#999999"/>
<path d="M27.0439 304.53V315.843H24.9971V306.514H24.9346L22.2939 308.202V306.343L25.0908 304.53H27.0439ZM33.4858 315.999C30.7671 315.999 29.1421 313.889 29.1421 310.186C29.1421 306.499 30.7671 304.374 33.4858 304.374C36.1889 304.374 37.8296 306.499 37.8296 310.186C37.8296 313.889 36.2046 315.999 33.4858 315.999ZM33.4858 314.296C34.9077 314.296 35.7827 312.905 35.7827 310.186C35.7827 307.483 34.8921 306.061 33.4858 306.061C32.0796 306.061 31.1889 307.483 31.1889 310.186C31.1889 312.905 32.0639 314.296 33.4858 314.296Z" fill="#999999"/>
<path d="M52.2783 35.0457C52.2783 37.2332 54.4189 39.4207 57.3721 39.9363L56.5908 41.3894C54.2236 40.8894 52.2861 39.4597 51.3721 37.5613C50.4346 39.4441 48.4971 40.8816 46.1377 41.3894L45.3721 39.9363C48.2939 39.405 50.4189 37.2175 50.4346 35.0457V33.9988H52.2783V35.0457ZM57.8877 43.9988V45.4363H44.9814V43.9988H57.8877ZM65.5796 34.3269V35.7488H60.6733V38.2644H65.3296V39.6394H60.6733V42.5457C62.8452 42.53 64.5405 42.4519 66.5171 42.1238L66.6733 43.53C64.5014 43.8738 62.6108 43.9519 60.0796 43.9519H58.9077V34.3269H65.5796ZM69.3921 33.1082V38.5769H71.5639V40.03H69.3921V47.2332H67.6577V33.1082H69.3921ZM74.0527 33.9519V36.0613H77.2089V33.9519H78.9277V36.6394H81.7714V33.1082H83.5058V41.53H81.7714V38.0613H78.9277V40.8113H72.3183V33.9519H74.0527ZM74.0527 39.405H77.2089V37.405H74.0527V39.405ZM83.5058 42.1707V47.2332H81.7714V43.5769H73.8808V42.1707H83.5058ZM92.3227 35.0457C92.3227 37.2332 94.4633 39.4207 97.4164 39.9363L96.6352 41.3894C94.268 40.8894 92.3305 39.4597 91.4164 37.5613C90.4789 39.4441 88.5414 40.8816 86.1821 41.3894L85.4164 39.9363C88.3383 39.405 90.4633 37.2175 90.4789 35.0457V33.9988H92.3227V35.0457ZM97.9321 43.9988V45.4363H85.0258V43.9988H97.9321Z" fill="#292929"/>
<path d="M57.8877 74.0769V75.53H44.9814V74.0769H57.8877ZM56.7627 64.4207V65.8113H54.7002V70.3113H56.7158V71.6863H46.0908V70.3113H48.0752V65.8113H46.0439V64.4207H56.7627ZM49.8096 70.3113H52.9814V65.8113H49.8096V70.3113ZM70.0952 63.1082V77.2488H68.3764V63.1082H70.0952ZM65.7514 64.3425V69.6394H60.8921V72.4832C63.1186 72.4675 65.0405 72.3582 67.2358 71.9832L67.3921 73.405C64.9858 73.8269 62.8764 73.905 60.3452 73.905H59.1108V68.2644H63.9858V65.7488H59.0952V64.3425H65.7514ZM79.7558 63.8269V64.9363C79.7558 66.0847 79.7558 67.4675 79.3652 69.2957C79.8261 69.2644 80.2793 69.2175 80.7246 69.1707L80.8183 70.4207C79.6699 70.5847 78.4589 70.6941 77.2558 70.78V73.4988H75.5214V70.8738C74.2089 70.9285 72.9511 70.9519 71.8339 70.9675L71.6152 69.5769C73.3808 69.5535 75.5058 69.53 77.6152 69.405C77.748 68.8113 77.8418 68.2566 77.9121 67.7332L72.6933 68.1238L72.4589 66.6863L78.0058 66.4675C78.0293 66.03 78.0371 65.6238 78.0371 65.2332H72.7714V63.8269H79.7558ZM83.5214 63.1238V73.905H81.7714V72.7019H79.0058V71.4675H81.7714V63.1238H83.5214ZM83.8652 75.5457V76.9519H73.5214V72.8738H75.2246V75.5457H83.8652ZM90.3696 66.4988C90.3539 69.0925 91.7133 71.6863 94.0102 72.6707L92.9789 74.0613C91.3539 73.3113 90.1586 71.8113 89.5102 69.9675C88.8618 71.9597 87.6508 73.5847 85.9321 74.3894L84.8696 72.9363C87.2289 71.9207 88.6039 69.2175 88.6039 66.4988V64.2488H90.3696V66.4988ZM96.7758 63.1082V77.2488H95.0258V63.1082H96.7758Z" fill="#999999"/>
<path d="M58.1377 98.5613V99.9832H56.0439V107.202H54.3096V93.1082H56.0439V98.5613H58.1377ZM47.2002 94.4832V102.28C49.083 102.249 51.0908 102.085 53.2158 101.639L53.4033 103.108C51.0283 103.577 48.7627 103.718 46.6689 103.718H45.4814V94.4832H47.2002ZM70.0796 93.1082V107.249H68.3296V93.1082H70.0796ZM62.4702 94.1394C64.5952 94.1394 66.1421 96.0769 66.1577 99.1238C66.1421 102.202 64.5952 104.124 62.4702 104.124C60.3296 104.124 58.7827 102.202 58.7827 99.1238C58.7827 96.0769 60.3296 94.1394 62.4702 94.1394ZM62.4702 95.7019C61.2671 95.7019 60.4546 96.9675 60.4546 99.1238C60.4546 101.296 61.2671 102.561 62.4702 102.561C63.6577 102.561 64.4702 101.296 64.4702 99.1238C64.4702 96.9675 63.6577 95.7019 62.4702 95.7019ZM79.3339 94.4988C79.3183 98.7644 78.0371 102.483 72.7871 105.046L71.8652 103.702C74.2949 102.514 75.8105 101.1 76.6777 99.405L72.1777 99.8113L71.9589 98.3269L77.2246 97.9988C77.4199 97.3425 77.5371 96.6394 77.5996 95.905H72.6777V94.4988H79.3339ZM83.4746 93.1082V107.233H81.7246V93.1082H83.4746Z" fill="#999999"/>
<path d="M48.1689 124.186C50.0439 124.186 51.2627 126.108 51.2783 129.218C51.2627 132.327 50.0439 134.28 48.1689 134.264C46.3252 134.28 45.1221 132.327 45.1221 129.218C45.1221 126.108 46.3252 124.186 48.1689 124.186ZM48.1689 125.827C47.2783 125.811 46.7158 127.014 46.7314 129.218C46.7158 131.421 47.2783 132.624 48.1689 132.608C49.1064 132.624 49.6689 131.421 49.6689 129.218C49.6689 127.014 49.1064 125.811 48.1689 125.827ZM57.1689 123.108V137.233H55.4971V129.999H53.9971V136.546H52.3564V123.358H53.9971V128.561H55.4971V123.108H57.1689ZM70.0171 123.514V124.827H68.0796V126.968H69.9389V128.28H59.5639V126.968H61.4233V124.827H59.4858V123.514H70.0171ZM71.2046 129.171V130.546H58.3296V129.171H71.2046ZM69.5952 131.499V134.858H61.5639V135.811H69.9858V137.108H59.8608V133.655H67.8921V132.764H59.8452V131.499H69.5952ZM63.1577 126.968H66.3296V124.827H63.1577V126.968Z" fill="#999999"/>
<path d="M56.6689 153.514V154.827H54.7314V156.968H56.5908V158.28H46.2158V156.968H48.0752V154.827H46.1377V153.514H56.6689ZM57.8564 159.171V160.546H44.9814V159.171H57.8564ZM56.2471 161.499V164.858H48.2158V165.811H56.6377V167.108H46.5127V163.655H54.5439V162.764H46.4971V161.499H56.2471ZM49.8096 156.968H52.9814V154.827H49.8096V156.968ZM65.6264 155.046C65.6264 157.233 67.7671 159.421 70.7202 159.936L69.9389 161.389C67.5718 160.889 65.6343 159.46 64.7202 157.561C63.7827 159.444 61.8452 160.882 59.4858 161.389L58.7202 159.936C61.6421 159.405 63.7671 157.218 63.7827 155.046V153.999H65.6264V155.046ZM71.2358 163.999V165.436H58.3296V163.999H71.2358Z" fill="#999999"/>
<path d="M56.8252 183.108V197.249H55.1064V189.593H52.2314V193.827H45.5127V184.202H47.2627V187.718H50.5283V184.202H52.2314V188.171H55.1064V183.108H56.8252ZM47.2627 192.436H50.5283V189.077H47.2627V192.436ZM70.1733 183.108V197.249H68.4546V189.593H65.5796V193.827H58.8608V184.202H60.6108V187.718H63.8764V184.202H65.5796V188.171H68.4546V183.108H70.1733ZM60.6108 192.436H63.8764V189.077H60.6108V192.436ZM83.4433 183.108V197.249H81.7246V183.108H83.4433ZM79.0996 184.343V189.639H74.2402V192.483C76.4668 192.468 78.3886 192.358 80.5839 191.983L80.7402 193.405C78.3339 193.827 76.2246 193.905 73.6933 193.905H72.4589V188.264H77.3339V185.749H72.4433V184.343H79.0996Z" fill="#999999"/>
<path d="M50.0439 215.655C50.0439 217.389 51.1689 219.014 53.3721 219.686L52.5439 221.046C50.958 220.553 49.833 219.546 49.2158 218.264C48.5908 219.749 47.3955 220.928 45.7002 221.499L44.8252 220.124C47.1064 219.374 48.2939 217.546 48.2939 215.671V215.499H45.3096V214.093H52.9814V215.499H50.0439V215.655ZM56.1221 213.108V216.499H58.0908V217.921H56.1221V221.53H54.3877V213.108H56.1221ZM51.5283 221.843C54.4502 221.843 56.2471 222.827 56.2627 224.514C56.2471 226.218 54.4502 227.218 51.5283 227.218C48.5752 227.218 46.7471 226.218 46.7471 224.514C46.7471 222.827 48.5752 221.843 51.5283 221.843ZM51.5283 223.202C49.5908 223.202 48.4814 223.655 48.4814 224.514C48.4814 225.389 49.5908 225.858 51.5283 225.858C53.4658 225.858 54.5439 225.389 54.5439 224.514C54.5439 223.655 53.4658 223.202 51.5283 223.202ZM69.5014 213.108V218.936H71.4858V220.389H69.5014V227.233H67.7514V213.108H69.5014ZM58.1577 223.311C59.228 223.311 60.4702 223.311 61.7671 223.28V221.952C60.228 221.694 59.2202 220.725 59.2358 219.405C59.2202 217.811 60.6264 216.749 62.6577 216.749C64.6577 216.749 66.0796 217.811 66.0952 219.405C66.0796 220.733 65.0561 221.702 63.5171 221.952V223.218C64.7046 223.155 65.8921 223.061 67.0014 222.905L67.1108 224.171C64.0796 224.718 60.8139 224.749 58.4077 224.749L58.1577 223.311ZM66.8452 214.733V216.108H58.4233V214.733H61.7671V213.171H63.5171V214.733H66.8452ZM62.6577 218.077C61.5796 218.093 60.8764 218.577 60.8764 219.405C60.8764 220.218 61.5796 220.702 62.6577 220.686C63.7202 220.702 64.4233 220.218 64.4233 219.405C64.4233 218.577 63.7202 218.093 62.6577 218.077Z" fill="#999999"/>
<path d="M56.7314 243.108V257.249H54.9814V243.108H56.7314ZM47.4658 244.264V247.796H50.8877V244.264H52.6064V253.921H45.7314V244.264H47.4658ZM47.4658 252.499H50.8877V249.155H47.4658V252.499ZM70.0796 243.108V257.249H68.3296V243.108H70.0796ZM60.8139 244.264V247.796H64.2358V244.264H65.9546V253.921H59.0796V244.264H60.8139ZM60.8139 252.499H64.2358V249.155H60.8139V252.499ZM82.8183 243.108V247.249H84.7871V248.686H82.8183V253.436H81.0839V243.108H82.8183ZM83.3808 255.546V256.952H73.7714V252.358H75.5058V255.546H83.3808ZM75.6464 244.046C77.7871 244.046 79.4433 245.53 79.4589 247.608C79.4433 249.655 77.7871 251.155 75.6464 251.155C73.5058 251.155 71.8183 249.655 71.8339 247.608C71.8183 245.53 73.5058 244.046 75.6464 244.046ZM75.6464 245.561C74.4589 245.561 73.5214 246.358 73.5371 247.608C73.5214 248.827 74.4589 249.624 75.6464 249.624C76.8339 249.624 77.7558 248.827 77.7558 247.608C77.7558 246.358 76.8339 245.561 75.6464 245.561ZM88.5883 243.936C90.3852 243.952 91.6977 245.03 91.6977 246.608C91.6977 248.171 90.3852 249.249 88.5883 249.233C86.7602 249.249 85.4477 248.171 85.4477 246.608C85.4477 245.03 86.7602 243.952 88.5883 243.936ZM88.5883 245.249C87.6352 245.233 86.9946 245.78 86.9946 246.608C86.9946 247.421 87.6352 247.952 88.5883 247.952C89.5102 247.952 90.1508 247.421 90.1664 246.608C90.1508 245.78 89.5102 245.233 88.5883 245.249ZM97.3071 243.108V257.233H95.6664V243.108H97.3071ZM94.4946 243.374V256.53H92.8696V253.577H90.4789V252.249H92.8696V243.374H94.4946ZM84.8227 250.108C86.7446 250.108 89.8227 250.093 92.0883 249.749L92.2133 251.046C91.3149 251.218 90.3305 251.335 89.3539 251.405V256.093H87.7133V251.499C86.7211 251.538 85.7836 251.546 85.0258 251.546L84.8227 250.108ZM105.671 245.046C105.671 247.233 107.811 249.421 110.765 249.936L109.983 251.389C107.616 250.889 105.679 249.46 104.765 247.561C103.827 249.444 101.89 250.882 99.5302 251.389L98.7646 249.936C101.686 249.405 103.811 247.218 103.827 245.046V243.999H105.671V245.046ZM111.28 253.999V255.436H98.3739V253.999H111.28ZM123.206 250.514V251.889H113.3V244.218H123.081V245.624H115.066V247.327H122.753V248.686H115.066V250.514H123.206ZM124.628 254.093V255.514H111.722V254.093H124.628ZM137.961 251.061V252.499H132.336V257.233H130.617V252.499H125.055V251.061H137.961ZM131.476 243.608C134.476 243.624 136.57 244.843 136.57 246.78C136.57 248.702 134.476 249.905 131.476 249.905C128.461 249.905 126.398 248.702 126.414 246.78C126.398 244.843 128.461 243.624 131.476 243.608ZM131.476 245.014C129.476 245.014 128.18 245.671 128.195 246.78C128.18 247.874 129.476 248.53 131.476 248.53C133.476 248.53 134.773 247.874 134.773 246.78C134.773 245.671 133.476 245.014 131.476 245.014ZM149.887 249.733V251.124H139.981V244.343H149.778V245.749H141.7V249.733H149.887ZM151.325 253.999V255.436H138.418V253.999H151.325Z" fill="#999999"/>
<path d="M56.3877 277.671V279.077H46.5752V273.78H48.3096V277.671H56.3877ZM57.8564 280.811V282.218H54.7627V287.233H53.0127V282.218H49.8252V287.233H48.0908V282.218H44.9814V280.811H57.8564ZM60.5327 273.733V275.53H63.8296V273.733H65.5483V279.889H58.8139V273.733H60.5327ZM60.5327 278.514H63.8296V276.843H60.5327V278.514ZM69.4702 273.108V275.968H71.4389V277.374H69.4702V280.343H67.7358V273.108H69.4702ZM69.4702 280.905V284.608H61.9702V285.733H69.9077V287.108H60.2514V283.343H67.7358V282.264H60.2358V280.905H69.4702ZM82.8183 273.124V277.28H84.8027V278.733H82.8183V283.514H81.0839V273.124H82.8183ZM83.3964 285.546V286.952H73.8339V282.686H75.5996V285.546H83.3964ZM78.6621 273.999V278.296H73.9589V280.03C76.3574 280.014 77.998 279.913 79.9277 279.577L80.1152 280.999C78.0058 281.374 76.1777 281.436 73.3808 281.436H72.2246V276.983H76.9589V275.421H72.2089V273.999H78.6621ZM92.3227 275.046C92.3227 277.233 94.4633 279.421 97.4164 279.936L96.6352 281.389C94.268 280.889 92.3305 279.46 91.4164 277.561C90.4789 279.444 88.5414 280.882 86.1821 281.389L85.4164 279.936C88.3383 279.405 90.4633 277.218 90.4789 275.046V273.999H92.3227V275.046ZM97.9321 283.999V285.436H85.0258V283.999H97.9321Z" fill="#999999"/>
<path d="M57.0596 303.124V310.264H55.4033V307.483H53.9189V310.155H52.2783V303.389H53.9189V306.108H55.4033V303.124H57.0596ZM51.1064 303.952C51.1064 307.311 49.3564 309.499 45.8096 310.733L44.9971 309.468C47.6611 308.593 49.0127 307.202 49.2783 305.343H45.6221V303.952H51.1064ZM57.0596 310.811V314.514H49.2471V315.686H57.5596V317.061H47.5127V313.218H55.3408V312.202H47.4971V310.811H57.0596ZM70.1577 303.124V311.78H68.4233V307.827H66.0171V306.436H68.4233V303.124H70.1577ZM70.1577 312.499V317.249H68.4233V313.858H60.5014V312.499H70.1577ZM65.2358 303.952V308.171H60.6264V309.796C62.8218 309.803 64.4389 309.749 66.3139 309.436L66.4389 310.874C64.3608 311.186 62.5639 311.233 60.0171 311.233H58.9077V306.843H63.5327V305.343H58.8764V303.952H65.2358ZM77.0214 306.499C77.0058 309.093 78.3652 311.686 80.6621 312.671L79.6308 314.061C78.0058 313.311 76.8105 311.811 76.1621 309.968C75.5136 311.96 74.3027 313.585 72.5839 314.389L71.5214 312.936C73.8808 311.921 75.2558 309.218 75.2558 306.499V304.249H77.0214V306.499ZM83.4277 303.108V317.249H81.6777V303.108H83.4277ZM91.1039 303.936V305.311H87.2289V306.53H90.9633V307.858H87.2289V309.171C88.9555 309.155 90.1508 309.093 91.5258 308.843L91.7133 310.249C90.0571 310.514 88.6821 310.577 86.4946 310.577H85.5571V303.936H91.1039ZM97.1039 303.124V311.139H95.4477V307.796H93.9789V311.03H92.3539V303.389H93.9789V306.374H95.4477V303.124H97.1039ZM89.2914 311.655V312.952H95.3852V311.655H97.1039V317.061H87.5727V311.655H89.2914ZM89.2914 315.655H95.3852V314.311H89.2914V315.655Z" fill="#999999"/>
</g>
<defs>
<clipPath id="clip0_156_870">
<rect width="131" height="300" fill="white" transform="translate(21.5127 25.8425)"/>
</clipPath>
</defs>
</svg>
