<svg width="1440" height="39" viewBox="0 0 1440 39" fill="none" xmlns="http://www.w3.org/2000/svg">
<rect x="471.511" y="0.5" width="122" height="38" rx="19" fill="white"/>
<rect x="471.511" y="0.5" width="122" height="38" rx="19" stroke="black"/>
<path d="M500.419 14.7715C500.419 16.2754 501.294 17.7246 503.263 18.3398L502.333 19.6934C501.014 19.2559 500.091 18.4082 499.558 17.3145C499.018 18.5723 498.054 19.5566 496.632 20.0352L495.688 18.668C497.767 17.9707 498.655 16.3164 498.669 14.6074V13.4727H500.419V14.7715ZM505.751 12.8164V15.7285H507.433V17.1777H505.751V20.1992H504.001V12.8164H505.751ZM501.677 20.4453C504.247 20.4453 505.874 21.334 505.874 22.8516C505.874 24.3828 504.247 25.2578 501.677 25.2578C499.052 25.2578 497.411 24.3828 497.411 22.8516C497.411 21.334 499.052 20.4453 501.677 20.4453ZM501.677 21.8125C500.036 21.8125 499.147 22.168 499.161 22.8516C499.147 23.5625 500.036 23.8906 501.677 23.8906C503.29 23.8906 504.151 23.5625 504.151 22.8516C504.151 22.168 503.29 21.8125 501.677 21.8125ZM518.907 18.6406V20.0215H514.095V21.0879H517.554V25.1211H508.872V21.0879H512.358V20.0215H507.559V18.6406H518.907ZM517.895 13.1582V14.5527H516.268V16.4531H517.813V17.8477H508.64V16.4531H510.171V14.5527H508.558V13.1582H517.895ZM510.595 22.4414V23.7266H515.845V22.4414H510.595ZM511.921 16.4531H514.518V14.5527H511.921V16.4531ZM533.434 22.373V23.8086H522.046V22.373H526.844V19.8301H523.249V13.7324H532.163V19.8301H528.581V22.373H533.434ZM524.971 15.127V18.4629H530.44V15.127H524.971ZM537.075 13.6914C538.975 13.6914 540.342 15.4141 540.356 18.1211C540.342 20.8555 538.975 22.5645 537.075 22.5645C535.174 22.5645 533.78 20.8555 533.794 18.1211C533.78 15.4141 535.174 13.6914 537.075 13.6914ZM537.075 15.2637C536.118 15.2637 535.475 16.2754 535.475 18.1211C535.475 19.9805 536.118 20.9785 537.075 20.9785C538.046 20.9785 538.674 19.9805 538.688 18.1211C538.674 16.2754 538.046 15.2637 537.075 15.2637ZM543.542 12.8164V17.5059H545.374V18.9551H543.542V25.2578H541.792V12.8164H543.542ZM556.794 22.3867V23.8086H545.405V22.3867H550.204V20.0898H546.608V13.6094H548.358V15.5371H553.786V13.6094H555.522V20.0898H551.94V22.3867H556.794ZM548.358 18.6953H553.786V16.9316H548.358V18.6953ZM567.543 12.8164V25.2578H565.78V12.8164H567.543ZM563.811 14.1152C563.811 17.8887 562.485 21.0195 558.042 23.125L557.126 21.7305C560.338 20.2129 561.753 18.2441 562.034 15.4824H557.795V14.1152H563.811Z" fill="#212121"/>
</svg>
